<?xml version="1.0" encoding="UTF-8"?>
<!-- Generator: visioncortex VTracer 0.6.4 -->
<svg version="1.1" xmlns="http://www.w3.org/2000/svg" width="1024" height="1024">
<path d="M0 0 C2.5986214095630658 1.0068810016216503 2.5986214095630658 1.0068810016216503 6.100341796875 1.902099609375 C10.158547859841747 3.1209954233402755 13.727584763497703 4.890254263808288 17.479248046875 6.835693359375 C18.160517578124995 7.183095703124991 18.84178710937499 7.530498046874982 19.543701171875 7.888427734375 C20.875134127934416 8.567573651442785 22.205423152805224 9.248967989839969 23.534423828125 9.932861328125 C26.15167867837374 11.275095527591077 28.783479161530522 12.587721012378324 31.416748046875 13.898193359375 C31.416748046875 14.558193359375025 31.416748046875 15.218193359374993 31.416748046875 15.898193359375 C32.121865234375036 16.145693359375002 32.82698242187507 16.393193359375005 33.553466796875 16.648193359375 C36.78562247621551 18.059229945171694 39.380037071833385 19.823265955864088 42.229248046875 21.898193359375 C43.692978515624986 22.950068359374995 43.692978515624986 22.950068359374995 45.186279296875 24.023193359375 C45.92233398437497 24.641943359374977 46.658388671874945 25.26069335937501 47.416748046875 25.898193359375 C47.416748046875 26.558193359374968 47.416748046875 27.218193359374993 47.416748046875 27.898193359375 C48.03549804687498 28.145693359375002 48.654248046874955 28.393193359375005 49.291748046875 28.648193359375 C51.82033431394041 30.135597045884083 52.1351380902604 31.334973446145625 53.416748046875 33.898193359375 C54.74195307250011 34.58087473621214 56.07486986238132 35.24889746365227 57.416748046875 35.898193359375 C57.74674804687493 36.88819335937501 58.07674804687508 37.87819335937502 58.416748046875 38.898193359375 C59.07674804687508 38.898193359375 59.736748046874936 38.898193359375 60.416748046875 38.898193359375 C61.70581054687523 40.42944335937523 61.70581054687523 40.42944335937523 63.041748046875 42.398193359375 C63.48776367187497 43.04788085937503 63.933779296874945 43.697568359375 64.393310546875 44.366943359375 C64.73104492187508 44.872255859375 65.06877929687494 45.377568359375005 65.416748046875 45.898193359375 C68.88174804687503 45.403193359374995 68.88174804687503 45.403193359374995 72.416748046875 44.898193359375 C71.76706054687497 44.062880859375014 71.11737304687495 43.22756835937503 70.447998046875 42.366943359375 C68.04756407055311 38.75356924660775 67.88140309241726 35.745622757679996 67.916748046875 31.398193359375 C67.90127929687503 29.495537109374993 67.90127929687503 29.495537109374993 67.885498046875 27.554443359375 C68.4980870200776 23.338389837921795 69.7575697920272 21.18819857248957 72.416748046875 17.898193359375 C76.87012819542406 14.86179780354604 81.12433183275311 14.034328048627174 86.416748046875 14.898193359375 C92.15880206436418 16.585784096492887 95.61794280664617 19.458005468727038 98.514404296875 24.675537109375 C100.5680638148549 29.73411834630366 100.94862385813781 34.666248280907894 99.416748046875 39.898193359375 C103.10286553582705 39.39554097451787 106.25713735321324 38.92937166244326 109.416748046875 36.898193359375 C110.07674804687508 35.90819335937499 110.73674804687494 34.91819335937498 111.416748046875 33.898193359375 C114.45723103330215 33.40514206427872 116.32733969638093 33.86640372364377 119.229248046875 34.898193359375 C121.416748046875 36.898193359375 121.416748046875 36.898193359375 122.229248046875 40.710693359375 C122.04606891238484 43.33786778824674 121.68729336814636 44.570101105126014 120.002685546875 46.613037109375 C111.38288227710541 53.583371852213304 102.59399823711647 55.13634303668556 91.791748046875 54.781005859375 C86.74447290865271 54.95625846834105 82.88605824018714 56.70751179771577 78.416748046875 58.898193359375 C76.75463379474172 59.57613025546311 75.08902959926036 60.24573904543905 73.416748046875 60.898193359375 C73.83827148437501 62.14213867187499 74.25979492187503 63.38608398437498 74.694091796875 64.667724609375 C80.35918443473292 81.71104086148893 80.35918443473292 81.71104086148893 80.416748046875 90.898193359375 C80.44309326171879 92.0153271484375 80.44309326171879 92.0153271484375 80.469970703125 93.155029296875 C81.11353022443495 120.4566031358595 75.7333576718961 143.92327892184335 60.416748046875 166.898193359375 C59.75674804687492 166.898193359375 59.096748046875064 166.898193359375 58.416748046875 166.898193359375 C58.20018554687499 167.59944335937496 57.98362304687498 168.30069335937503 57.760498046875 169.023193359375 C55.7935017451731 173.23165056301627 52.61749738957349 176.16668110866908 49.405029296875 179.437255859375 C45.641810939350876 183.37198819029834 43.363890159130506 186.36101474764246 43.479248046875 191.898193359375 C44.6490803386223 195.6416566929662 46.60556409339813 197.22756860357197 49.416748046875 199.898193359375 C50.72325869986753 203.26367982518104 50.45519392572692 203.81087054926934 48.905029296875 207.331787109375 C48.186654244810256 208.67014119255907 47.46094492557518 210.00457576685926 46.729248046875 211.335693359375 C38.71053123897036 226.90082263809632 37.74670839636565 239.96381075154454 37.55859375 257.39892578125 C37.416748046875 259.898193359375 37.416748046875 259.898193359375 36.416748046875 261.898193359375 C20.90674804687501 261.898193359375 5.396748046875018 261.898193359375 -10.583251953125 261.898193359375 C-9.82573327630007 256.5955626216004 -8.876633170529658 252.44588067417124 -6.958251953125 247.585693359375 C-6.569357910156214 246.5699523925781 -6.569357910156214 246.5699523925781 -6.172607421875 245.53369140625 C-4.693550726369267 241.68525076314245 -3.1676009564325796 237.8564238497829 -1.630126953125 234.031005859375 C-1.3099560546875182 233.2270336914063 -0.9897851562500364 232.42306152343747 -0.659912109375 231.5947265625 C-0.037432931833336625 230.03533477986934 0.5928034146353411 228.47901152141833 1.231689453125 226.92626953125 C3.3900097738264776 221.59139086389416 3.3900097738264776 221.59139086389416 3.416748046875 215.898193359375 C1.363820505948297 213.78265425761856 1.363820505948297 213.78265425761856 -1.583251953125 212.898193359375 C-11.752544920310811 215.57134547453234 -20.455863471483553 221.419212541536 -26.583251953125 229.898193359375 C-27.018955078124918 230.455068359375 -27.454658203125064 231.01194335937498 -27.903564453125 231.585693359375 C-32.35547948206886 237.85757365172367 -34.408357268072905 245.42903980474694 -36.771240234375 252.669921875 C-37.91077603460985 255.796964343053 -39.272208489175 258.8390919434919 -40.583251953125 261.898193359375 C-57.74325195312508 261.898193359375 -74.90325195312494 261.898193359375 -92.583251953125 261.898193359375 C-91.58135792929511 256.8887232402253 -90.86855368022157 255.60257633619142 -87.708251953125 251.898193359375 C-84.98686309673417 248.6847452632676 -82.72280950059746 245.521340954092 -80.583251953125 241.898193359375 C-79.24991861979174 240.56486002604163 -77.91658528645826 239.23152669270837 -76.583251953125 237.898193359375 C-73.83210300704627 234.06325846484106 -71.61125420178223 230.15699808155512 -69.583251953125 225.898193359375 C-68.92325195312492 225.898193359375 -68.26325195312506 225.898193359375 -67.583251953125 225.898193359375 C-67.32801757812501 225.08028320312496 -67.32801757812501 225.08028320312496 -67.067626953125 224.245849609375 C-66.82528320312508 223.49174804687505 -66.58293945312494 222.73764648437498 -66.333251953125 221.960693359375 C-66.10122070312502 221.22979492187505 -65.86918945312505 220.498896484375 -65.630126953125 219.745849609375 C-64.6862111492477 217.17825773987283 -63.634897654540396 214.715871785947 -62.517822265625 212.22021484375 C-62.15601867675787 211.4105979919434 -61.79421508789062 210.6009811401367 -61.42144775390625 209.76683044433594 C-61.1448431396484 209.15018020629884 -60.86823852539055 208.53352996826175 -60.583251953125 207.898193359375 C-61.64560058593747 208.11185546875004 -62.707949218749945 208.32551757812496 -63.802490234375 208.545654296875 C-79.57904138789343 211.4412748234348 -95.30389050217616 211.28687361890957 -111.27203369140625 211.1624755859375 C-114.19629670139966 211.14337182691747 -117.12049604669994 211.1393216903067 -120.04481315612793 211.13576126098633 C-123.59671594971996 211.13055678915373 -127.14856595615413 211.11610162400245 -130.700439453125 211.101318359375 C-131.98723602294922 211.09706848144538 -133.27403259277344 211.09281860351564 -134.59982299804688 211.08843994140625 C-142.9707751274844 211.0233579290067 -151.2417449715557 210.59332729534435 -159.583251953125 209.898193359375 C-160.59084556551977 215.64147695002532 -160.48086933173062 220.37352155701228 -159.583251953125 226.148193359375 C-158.13730242272038 236.0222459745355 -157.41418052899348 246.44970232429318 -163.583251953125 254.898193359375 C-168.32846117107584 259.91455738978016 -174.46603096541293 261.69171747756354 -181.22119140625 262.13916015625 C-185.36405009334675 262.22894802041014 -189.5031975964124 262.160874975939 -193.645751953125 262.085693359375 C-195.09821200097736 262.07061591943193 -196.55068722584122 262.0569329368917 -198.003173828125 262.044677734375 C-201.53018652192083 262.0119219659148 -205.05661980467585 261.9603099946336 -208.583251953125 261.898193359375 C-208.583251953125 260.57819335937506 -208.583251953125 259.258193359375 -208.583251953125 257.898193359375 C-207.92325195312503 257.898193359375 -207.263251953125 257.898193359375 -206.583251953125 257.898193359375 C-206.315126953125 257.350341796875 -206.047001953125 256.802490234375 -205.770751953125 256.238037109375 C-203.95255908502293 252.65547945150274 -201.97372128824202 249.16256198924793 -200.020751953125 245.652099609375 C-197.55003713171084 240.91880083465503 -196.01998732740412 237.3055337662953 -196.583251953125 231.898193359375 C-198.32662182746174 228.14994812955103 -200.28457892116637 226.28688762389675 -203.583251953125 223.898193359375 C-203.583251953125 223.23819335937503 -203.583251953125 222.57819335937506 -203.583251953125 221.898193359375 C-207.01304512652257 224.92747989893633 -208.55894299473255 227.62480685756566 -210.145751953125 231.898193359375 C-210.57243164062504 233.046748046875 -210.99911132812497 234.195302734375 -211.438720703125 235.378662109375 C-212.50176701250348 238.64762021432387 -213.26184057920955 241.8482654374643 -213.958251953125 245.210693359375 C-215.61167678492234 252.3850367387255 -219.53670503568878 256.8671620810842 -225.583251953125 260.898193359375 C-229.91419572821593 262.128602691422 -234.26251232475227 262.02700301542836 -238.727783203125 261.995849609375 C-239.4975700378418 261.99443466186517 -240.2673568725586 261.99301971435546 -241.0604705810547 261.99156188964844 C-243.50560483303866 261.985989420539 -245.95064563619246 261.97344206914363 -248.395751953125 261.960693359375 C-250.05916208375055 261.955674798397 -251.72257365770975 261.95111251406115 -253.385986328125 261.947021484375 C-257.4517772362459 261.9360290155563 -261.5174987797428 261.918783461149 -265.583251953125 261.898193359375 C-264.7902852244507 257.275029036143 -263.04026557771687 253.67697675383124 -260.708251953125 249.648193359375 C-260.356337890625 249.01139648437493 -260.004423828125 248.37459960937508 -259.641845703125 247.718505859375 C-256.9536507261311 243.02165961704372 -256.9536507261311 243.02165961704372 -253.583251953125 241.898193359375 C-252.90299558421623 239.90277467724252 -252.2383469820898 237.90201344797333 -251.583251953125 235.898193359375 C-250.958056640625 235.124755859375 -250.33286132812498 234.351318359375 -249.688720703125 233.554443359375 C-242.57184850746034 224.57582908655127 -241.64651471819923 213.94963986735627 -242.337646484375 202.942626953125 C-242.75181676549977 199.49505047783782 -243.65141370031097 196.24008717368406 -244.583251953125 192.898193359375 C-245.33284179687496 192.96748046874995 -246.08243164062503 193.03676757812502 -246.854736328125 193.108154296875 C-257.26606497618735 193.96811412935745 -267.6418688878153 194.11798592107425 -278.084228515625 194.138427734375 C-281.05033943025614 194.14808618736959 -284.0157413597565 194.17919308091905 -286.981689453125 194.210693359375 C-299.6432102145921 194.28012801357568 -311.82086108245517 193.25705650213524 -324.3212890625 191.259521484375 C-327.17513597602317 190.80364523699086 -330.03493368104745 190.39367120965153 -332.895751953125 189.984130859375 C-334.4584887939337 189.74871857886853 -336.02101022140664 189.5118691794986 -337.583251953125 189.273193359375 C-338.387626953125 189.15202148437504 -339.192001953125 189.03084960937497 -340.020751953125 188.906005859375 C-340.804501953125 188.78741210937505 -341.588251953125 188.668818359375 -342.395751953125 188.546630859375 C-343.116337890625 188.43802734375004 -343.836923828125 188.32942382812496 -344.579345703125 188.217529296875 C-346.3784037033007 187.93083730561898 -348.1692148623446 187.59348289302034 -349.958251953125 187.249755859375 C-352.6868793664472 186.6886465518952 -352.6868793664472 186.6886465518952 -355.583251953125 187.898193359375 C-362.71623338860894 188.6490335104786 -367.6140808705296 186.83744430950526 -373.583251953125 182.898193359375 C-379.4826365975184 177.96892974539287 -382.53669202452096 170.7917498734281 -385.583251953125 163.898193359375 C-386.074384765625 162.78959960937505 -386.565517578125 161.68100585937498 -387.071533203125 160.538818359375 C-390.48280236542263 152.04427768480855 -391.96855921454846 144.00658860323426 -390.583251953125 134.898193359375 C-389.563720703125 133.003662109375 -389.563720703125 133.003662109375 -387.583251953125 131.898193359375 C-384.7999764032923 131.59509319478593 -382.1820401457784 131.43869952657974 -379.395751953125 131.398193359375 C-373.1533498015286 131.18318675371256 -368.3014490375688 130.58910963440735 -362.583251953125 127.898193359375 C-361.525576171875 127.69709960937507 -361.525576171875 127.69709960937507 -360.446533203125 127.491943359375 C-359.831650390625 127.29600585937499 -359.216767578125 127.10006835937497 -358.583251953125 126.898193359375 C-358.253251953125 125.90819335937499 -357.92325195312503 124.91819335937498 -357.583251953125 123.898193359375 C-355.14575195312494 121.210693359375 -355.14575195312494 121.210693359375 -352.583251953125 118.898193359375 C-351.92325195312503 118.898193359375 -351.263251953125 118.898193359375 -350.583251953125 118.898193359375 C-350.302236328125 118.31295898437497 -350.021220703125 117.72772460937495 -349.731689453125 117.124755859375 C-348.66835859759794 115.06319603743475 -347.4953716346332 113.19977377437135 -346.208251953125 111.273193359375 C-343.3243620759988 106.72192172438236 -341.4622295702323 101.92794567067102 -339.583251953125 96.898193359375 C-338.92019695023293 95.23008656262544 -338.2545046350234 93.56301829289396 -337.583251953125 91.898193359375 C-338.841376953125 91.81569335937502 -340.099501953125 91.73319335937498 -341.395751953125 91.648193359375 C-349.9036130749939 90.68200092913122 -357.4924641064382 87.9889812060618 -363.583251953125 81.898193359375 C-364.408251953125 81.093818359375 -365.233251953125 80.28944335937501 -366.083251953125 79.460693359375 C-370.07497626777865 74.50365009281165 -372.6034270715547 67.88976865886411 -374.583251953125 61.898193359375 C-374.088251953125 60.413193359374986 -374.088251953125 60.413193359374986 -373.583251953125 58.898193359375 C-372.115654296875 58.608154296875 -372.115654296875 58.608154296875 -370.618408203125 58.312255859375 C-363.5878944663547 56.91763296606234 -356.571943759342 55.4921055257052 -349.583251953125 53.898193359375 C-349.860400390625 52.859208984375016 -350.137548828125 51.82022460937503 -350.423095703125 50.749755859375 C-352.4108152641439 43.14900803338719 -354.2041355702771 35.783814122611034 -354.583251953125 27.898193359375 C-350.05908342114304 28.329066552897075 -345.76589538054645 28.84250269886104 -341.352783203125 29.925537109375 C-336.589494100592 31.008259691836713 -332.0767499350595 31.165300888972297 -327.208251953125 31.085693359375 C-326.37028076171873 31.079248046875023 -325.5323095703125 31.07280273437499 -324.6689453125 31.066162109375 C-320.46794532570203 31.014051633717486 -316.32505210531923 30.85520082451194 -312.145751953125 30.398193359375 C-300.9850448013714 29.21051247311641 -288.6419978248887 28.328262785010054 -277.969970703125 32.241943359375 C-271.4682739517324 34.02964393913595 -266.8468043631221 32.48021360960678 -261.145751953125 29.335693359375 C-259.7399687763584 28.596641738608355 -258.33235919500646 27.86105547955799 -256.923095703125 27.128662109375 C-256.2075048828125 26.755317382812507 -255.49191406249997 26.381972656250014 -254.754638671875 25.997314453125 C-242.7300227668191 19.910646946428187 -230.05566885108408 14.994245041960653 -217.255126953125 10.835693359375 C-214.4698559010866 9.929542242653326 -214.4698559010866 9.929542242653326 -211.583251953125 8.335693359375 C-207.70341500164568 6.476604820124464 -203.76481215581214 5.608006062338063 -199.583251953125 4.644287109375 C-196.56591838652304 3.9373433457429883 -196.56591838652304 3.9373433457429883 -193.622314453125 2.898193359375 C-190.42043355285136 1.8446181531152774 -187.26051947481983 1.1325339930991163 -183.958251953125 0.460693359375 C-179.56535816337106 -0.45086645726843244 -175.22806651529766 -1.4379921801819933 -170.895751953125 -2.601806640625 C-163.39724528155085 -4.519095495070303 -155.76212157434554 -5.572897474930755 -148.114990234375 -6.708251953125 C-145.31379979383655 -7.1436925500534585 -142.52425146730297 -7.633740491303399 -139.731689453125 -8.121337890625 C-96.10599592315123 -15.39573930465275 -41.63601459362599 -15.949964789017145 0 0 Z M-89.633056640625 1.890380859375 C-127.87505576060403 1.9661638648146322 -166.0484379107666 7.8073471813695505 -202.276123046875 20.123779296875 C-204.2605003166143 20.78985810106684 -206.25868902266154 21.414534220337373 -208.259033203125 22.031005859375 C-217.11282001644213 24.788240507120804 -225.64507342570363 28.29640140152503 -234.208251953125 31.835693359375 C-235.42391845703128 32.33802490234376 -236.6395849609375 32.84035644531252 -237.89208984375 33.35791015625 C-245.87884645070176 36.69226070015583 -253.75124334762478 40.21605358587664 -261.583251953125 43.898193359375 C-261.583251953125 45.54819335937498 -261.583251953125 47.19819335937501 -261.583251953125 48.898193359375 C-257.8519604125727 48.2885927665738 -254.80286576461572 47.21124396662981 -251.395751953125 45.585693359375 C-246.99417752139993 43.53241198907966 -242.56968300980475 41.63843412091779 -238.048095703125 39.866943359375 C-236.38868780620078 39.21475134917341 -234.73503105458656 38.5477546782887 -233.087158203125 37.866943359375 C-228.10107338688476 35.813392046602075 -223.1247073540219 34.10167821832829 -217.942626953125 32.613037109375 C-215.8108616204596 31.967154566531008 -213.77586488540476 31.22267537575931 -211.708251953125 30.398193359375 C-207.41135827481816 28.73009032572338 -202.99451999014912 27.696329224830265 -198.512939453125 26.644287109375 C-195.56370132486205 25.93519528952322 -195.56370132486205 25.93519528952322 -192.677001953125 24.902099609375 C-189.21329836454515 23.77814528833329 -185.78526970500621 23.07672043808236 -182.208251953125 22.398193359375 C-176.3592282480962 21.27813279450885 -176.3592282480962 21.27813279450885 -170.583251953125 19.835693359375 C-165.87834050077583 18.61479861541096 -161.07579047741245 18.1304557881939 -156.259033203125 17.534912109375 C-152.7598983023015 17.082444391134572 -149.29024330672917 16.519354112298515 -145.813720703125 15.917724609375 C-129.6968423033146 13.16777128514093 -113.92247020924401 12.078074661277242 -97.583251953125 11.898193359375 C-96.46354003906254 11.883046874999991 -95.34382812499996 11.867900390624982 -94.190185546875 11.852294921875 C-87.66924268595108 11.774245394127831 -81.1534237845774 11.776384455116158 -74.632568359375 11.861083984375 C-72.66619045229265 11.885014283964779 -70.69967365551406 11.900009864355525 -68.733154296875 11.904052734375 C-46.23428414017667 11.983568090998801 -16.640530237949974 14.571347168863497 3.010498046875 26.468505859375 C5.556013890067447 27.98093897399906 7.884638744077847 28.78920275459177 10.729248046875 29.585693359375 C12.053759765625045 29.962744140624977 12.053759765625045 29.962744140624977 13.405029296875 30.347412109375 C14.400830078124955 30.620048828124993 14.400830078124955 30.620048828124993 15.416748046875 30.898193359375 C15.416748046875 31.558193359374968 15.416748046875 32.21819335937499 15.416748046875 32.898193359375 C16.571748046874973 33.434443359374995 17.726748046874945 33.97069335937499 18.916748046875 34.523193359375 C23.510327179319347 36.81591781132067 27.40496172452481 39.72002497413649 31.416748046875 42.898193359375 C32.26237304687493 43.51694335937498 33.10799804687508 44.13569335937501 33.979248046875 44.773193359375 C36.891445452175276 47.31203212297004 39.297032381289114 50.13020851150054 41.768310546875 53.093505859375 C43.483071356731216 55.11591591680968 43.483071356731216 55.11591591680968 46.416748046875 56.898193359375 C46.74674804687493 57.88819335937501 47.07674804687508 58.87819335937502 47.416748046875 59.898193359375 C47.97362304687499 60.434443359374995 48.53049804687498 60.97069335937499 49.104248046875 61.523193359375 C60.17137614413946 72.88943302683583 63.4278306086195 87.87011685417968 66.416748046875 102.898193359375 C66.74674804687493 102.898193359375 67.07674804687508 102.898193359375 67.416748046875 102.898193359375 C68.36487758194244 86.00744127169082 63.21931814627271 70.63993440782724 55.416748046875 55.898193359375 C54.75674804687492 55.898193359375 54.096748046875064 55.898193359375 53.416748046875 55.898193359375 C52.75674804687492 53.91819335937498 52.096748046875064 51.93819335937502 51.416748046875 49.898193359375 C50.75674804687492 49.898193359375 50.096748046875064 49.898193359375 49.416748046875 49.898193359375 C49.251748046875036 49.21756835937498 49.08674804687507 48.536943359375016 48.916748046875 47.835693359375 C47.07153529441723 44.22215171914519 44.78123553753949 42.35400731560139 41.686279296875 39.788818359375 C39.39301680643996 37.87842413326388 37.22623836920707 35.8688601957906 35.041748046875 33.835693359375 C30.513679401562626 29.81160495711964 25.70484851095489 26.820146768956647 20.416748046875 23.898193359375 C19.067099609374964 23.124755859375 19.067099609374964 23.124755859375 17.690185546875 22.335693359375 C11.749799601657514 18.98899705221021 5.839373375247874 16.179361726333127 -0.583251953125 13.898193359375 C-1.4695629882812682 13.56585693359375 -1.4695629882812682 13.56585693359375 -2.373779296875 13.226806640625 C-30.52767133236614 2.7867827671718715 -60.00237900445484 1.9481510223164378 -89.633056640625 1.890380859375 Z M81.416748046875 28.898193359375 C81.08176504177663 31.229843697606725 81.08176504177663 31.229843697606725 81.416748046875 33.898193359375 C83.31258914036255 36.21196483040177 83.31258914036255 36.21196483040177 85.416748046875 37.898193359375 C86.10168178176264 35.04041302662955 86.10168178176264 35.04041302662955 86.416748046875 31.898193359375 C85.75674804687492 30.90819335937499 85.09674804687506 29.918193359374982 84.416748046875 28.898193359375 C83.42674804687499 28.898193359375 82.43674804687498 28.898193359375 81.416748046875 28.898193359375 Z M-325.583251953125 44.898193359375 C-325.583251953125 45.228193359374984 -325.583251953125 45.55819335937497 -325.583251953125 45.898193359375 C-324.3894995117188 45.927922363281255 -324.3894995117188 45.927922363281255 -323.171630859375 45.958251953125 C-319.51687557614036 46.05433193951069 -315.86262815368667 46.16367159512242 -312.208251953125 46.273193359375 C-310.956572265625 46.30413085937499 -309.704892578125 46.335068359374986 -308.415283203125 46.366943359375 C-298.4307643508874 46.68059316625158 -289.65936257540363 47.637978169325834 -280.583251953125 51.898193359375 C-279.593251953125 52.228193359374984 -278.603251953125 52.55819335937497 -277.583251953125 52.898193359375 C-277.583251953125 53.55819335937497 -277.583251953125 54.21819335937499 -277.583251953125 54.898193359375 C-276.92325195312503 54.898193359375 -276.263251953125 54.898193359375 -275.583251953125 54.898193359375 C-274.92325195312503 56.54819335937498 -274.263251953125 58.19819335937501 -273.583251953125 59.898193359375 C-273.253251953125 59.898193359375 -272.92325195312503 59.898193359375 -272.583251953125 59.898193359375 C-272.79417688109066 53.886832912353384 -273.8856823140664 50.7882803897611 -277.817626953125 46.245849609375 C-281.4562250299627 43.46860107727542 -286.07276656944856 43.77028050311134 -290.485595703125 43.765380859375 C-291.61763427734377 43.76344726562502 -292.74967285156254 43.76151367187498 -293.916015625 43.759521484375 C-295.10557861328124 43.764033203124995 -296.2951416015625 43.76854492187499 -297.520751953125 43.773193359375 C-299.3350671386719 43.77609374999997 -299.3350671386719 43.77609374999997 -301.18603515625 43.779052734375 C-309.35867838718036 43.81861107471968 -317.44896647069845 44.05619708023289 -325.583251953125 44.898193359375 Z M-329.583251953125 60.898193359375 C-328.92325195312503 62.21819335937499 -328.263251953125 63.538193359374986 -327.583251953125 64.898193359375 C-327.583251953125 63.90819335937499 -327.583251953125 62.91819335937498 -327.583251953125 61.898193359375 C-328.24325195312497 61.568193359375016 -328.903251953125 61.23819335937503 -329.583251953125 60.898193359375 Z M-320.583251953125 87.898193359375 C-323.3335692607453 93.18816537232988 -325.8848118724793 98.5042526656249 -328.145751953125 104.023193359375 C-332.96148802257954 115.69094895975093 -339.3028529277747 125.3239819863137 -347.583251953125 134.898193359375 C-339.7774230119906 131.59572726889508 -334.2476759586664 124.74454363003838 -329.583251953125 117.898193359375 C-328.8301771035304 115.71597938343177 -328.8301771035304 115.71597938343177 -328.583251953125 113.898193359375 C-327.92325195312503 113.898193359375 -327.263251953125 113.898193359375 -326.583251953125 113.898193359375 C-326.186220703125 113.07577148437497 -325.789189453125 112.25334960937494 -325.380126953125 111.406005859375 C-324.0752925119998 108.85874210256975 -322.7385398893999 106.41249673584059 -321.286376953125 103.952880859375 C-320.685029296875 102.926142578125 -320.685029296875 102.926142578125 -320.071533203125 101.878662109375 C-319.2385689266328 100.4623600745823 -318.3972504841545 99.05094168585242 -317.548095703125 97.644287109375 C-317.152353515625 96.96237304687497 -316.756611328125 96.280458984375 -316.348876953125 95.577880859375 C-315.98568359374997 94.96670410156253 -315.622490234375 94.35552734375 -315.248291015625 93.725830078125 C-314.4115356240509 91.42628864592103 -314.7986816149996 90.17344733993855 -315.583251953125 87.898193359375 C-317.233251953125 87.898193359375 -318.883251953125 87.898193359375 -320.583251953125 87.898193359375 Z M-222.583251953125 151.898193359375 C-223.2341778497327 153.14554903101396 -223.8787686462009 154.3962116789678 -224.520751953125 155.648193359375 C-225.06022460937504 156.69233398437495 -225.06022460937504 156.69233398437495 -225.610595703125 157.757568359375 C-228.79813375969468 164.77271235535954 -228.09960360096676 172.0279481976412 -225.751220703125 179.183349609375 C-221.8996245805896 188.13605631560267 -216.12145785349082 194.9166576205481 -208.583251953125 200.898193359375 C-187.78980733905098 218.30724707946365 -187.78980733905098 218.30724707946365 -183.583251953125 227.898193359375 C-183.25325195312502 227.898193359375 -182.92325195312503 227.898193359375 -182.583251953125 227.898193359375 C-182.04406884500344 224.27796391913012 -181.93574286148578 222.04860117885391 -183.755126953125 218.816162109375 C-189.8458965746957 210.76764510944236 -197.3075575710709 203.6372331610205 -204.958251953125 197.085693359375 C-213.23308408923776 189.92089968054563 -218.82156661456247 180.5559649476303 -221.583251953125 169.898193359375 C-221.80665644596831 166.76698997632252 -221.77329305675119 163.6601758188849 -221.708251953125 160.523193359375 C-221.699228515625 159.69174804687498 -221.69020507812502 158.86030273437495 -221.680908203125 158.003662109375 C-221.65751415573874 155.9683799867713 -221.621649205214 153.9332477200926 -221.583251953125 151.898193359375 C-221.91325195312504 151.898193359375 -222.24325195312497 151.898193359375 -222.583251953125 151.898193359375 Z M-182.583251953125 227.898193359375 C-181.583251953125 230.898193359375 -181.583251953125 230.898193359375 -181.583251953125 230.898193359375 Z " fill="#D73A34" transform="translate(649.583251953125,401.101806640625)"/>
<path d="M0 0 C2.5986214095630658 1.0068810016216503 2.5986214095630658 1.0068810016216503 6.100341796875 1.902099609375 C10.158547859841747 3.1209954233402755 13.727584763497703 4.890254263808288 17.479248046875 6.835693359375 C18.160517578124995 7.183095703124991 18.84178710937499 7.530498046874982 19.543701171875 7.888427734375 C20.875134127934416 8.567573651442785 22.205423152805224 9.248967989839969 23.534423828125 9.932861328125 C26.15167867837374 11.275095527591077 28.783479161530522 12.587721012378324 31.416748046875 13.898193359375 C31.416748046875 14.558193359375025 31.416748046875 15.218193359374993 31.416748046875 15.898193359375 C32.121865234375036 16.145693359375002 32.82698242187507 16.393193359375005 33.553466796875 16.648193359375 C36.78562247621551 18.059229945171694 39.380037071833385 19.823265955864088 42.229248046875 21.898193359375 C43.692978515624986 22.950068359374995 43.692978515624986 22.950068359374995 45.186279296875 24.023193359375 C45.92233398437497 24.641943359374977 46.658388671874945 25.26069335937501 47.416748046875 25.898193359375 C47.416748046875 26.558193359374968 47.416748046875 27.218193359374993 47.416748046875 27.898193359375 C48.03549804687498 28.145693359375002 48.654248046874955 28.393193359375005 49.291748046875 28.648193359375 C51.82033431394041 30.135597045884083 52.1351380902604 31.334973446145625 53.416748046875 33.898193359375 C54.74195307250011 34.58087473621214 56.07486986238132 35.24889746365227 57.416748046875 35.898193359375 C57.74674804687493 36.88819335937501 58.07674804687508 37.87819335937502 58.416748046875 38.898193359375 C59.07674804687508 38.898193359375 59.736748046874936 38.898193359375 60.416748046875 38.898193359375 C61.70581054687523 40.42944335937523 61.70581054687523 40.42944335937523 63.041748046875 42.398193359375 C63.48776367187497 43.04788085937503 63.933779296874945 43.697568359375 64.393310546875 44.366943359375 C64.73104492187508 44.872255859375 65.06877929687494 45.377568359375005 65.416748046875 45.898193359375 C68.88174804687503 45.403193359374995 68.88174804687503 45.403193359374995 72.416748046875 44.898193359375 C71.76706054687497 44.062880859375014 71.11737304687495 43.22756835937503 70.447998046875 42.366943359375 C68.04756407055311 38.75356924660775 67.88140309241726 35.745622757679996 67.916748046875 31.398193359375 C67.90127929687503 29.495537109374993 67.90127929687503 29.495537109374993 67.885498046875 27.554443359375 C68.4980870200776 23.338389837921795 69.7575697920272 21.18819857248957 72.416748046875 17.898193359375 C76.87012819542406 14.86179780354604 81.12433183275311 14.034328048627174 86.416748046875 14.898193359375 C92.15880206436418 16.585784096492887 95.61794280664617 19.458005468727038 98.514404296875 24.675537109375 C100.5680638148549 29.73411834630366 100.94862385813781 34.666248280907894 99.416748046875 39.898193359375 C103.10286553582705 39.39554097451787 106.25713735321324 38.92937166244326 109.416748046875 36.898193359375 C110.07674804687508 35.90819335937499 110.73674804687494 34.91819335937498 111.416748046875 33.898193359375 C114.45723103330215 33.40514206427872 116.32733969638093 33.86640372364377 119.229248046875 34.898193359375 C121.416748046875 36.898193359375 121.416748046875 36.898193359375 122.229248046875 40.710693359375 C122.04606891238484 43.33786778824674 121.68729336814636 44.570101105126014 120.002685546875 46.613037109375 C111.38288227710541 53.583371852213304 102.59399823711647 55.13634303668556 91.791748046875 54.781005859375 C86.74447290865271 54.95625846834105 82.88605824018714 56.70751179771577 78.416748046875 58.898193359375 C76.75463379474172 59.57613025546311 75.08902959926036 60.24573904543905 73.416748046875 60.898193359375 C73.83827148437501 62.14213867187499 74.25979492187503 63.38608398437498 74.694091796875 64.667724609375 C80.35918443473292 81.71104086148893 80.35918443473292 81.71104086148893 80.416748046875 90.898193359375 C80.44309326171879 92.0153271484375 80.44309326171879 92.0153271484375 80.469970703125 93.155029296875 C81.11353022443495 120.4566031358595 75.7333576718961 143.92327892184335 60.416748046875 166.898193359375 C59.75674804687492 166.898193359375 59.096748046875064 166.898193359375 58.416748046875 166.898193359375 C58.20018554687499 167.59944335937496 57.98362304687498 168.30069335937503 57.760498046875 169.023193359375 C55.7935017451731 173.23165056301627 52.61749738957349 176.16668110866908 49.405029296875 179.437255859375 C45.641810939350876 183.37198819029834 43.363890159130506 186.36101474764246 43.479248046875 191.898193359375 C44.6490803386223 195.6416566929662 46.60556409339813 197.22756860357197 49.416748046875 199.898193359375 C50.72325869986753 203.26367982518104 50.45519392572692 203.81087054926934 48.905029296875 207.331787109375 C48.186654244810256 208.67014119255907 47.46094492557518 210.00457576685926 46.729248046875 211.335693359375 C38.71053123897036 226.90082263809632 37.74670839636565 239.96381075154454 37.55859375 257.39892578125 C37.416748046875 259.898193359375 37.416748046875 259.898193359375 36.416748046875 261.898193359375 C20.90674804687501 261.898193359375 5.396748046875018 261.898193359375 -10.583251953125 261.898193359375 C-9.82573327630007 256.5955626216004 -8.876633170529658 252.44588067417124 -6.958251953125 247.585693359375 C-6.569357910156214 246.5699523925781 -6.569357910156214 246.5699523925781 -6.172607421875 245.53369140625 C-4.693550726369267 241.68525076314245 -3.1676009564325796 237.8564238497829 -1.630126953125 234.031005859375 C-1.3099560546875182 233.2270336914063 -0.9897851562500364 232.42306152343747 -0.659912109375 231.5947265625 C-0.037432931833336625 230.03533477986934 0.5928034146353411 228.47901152141833 1.231689453125 226.92626953125 C3.3900097738264776 221.59139086389416 3.3900097738264776 221.59139086389416 3.416748046875 215.898193359375 C1.363820505948297 213.78265425761856 1.363820505948297 213.78265425761856 -1.583251953125 212.898193359375 C-11.752544920310811 215.57134547453234 -20.455863471483553 221.419212541536 -26.583251953125 229.898193359375 C-27.018955078124918 230.455068359375 -27.454658203125064 231.01194335937498 -27.903564453125 231.585693359375 C-32.35547948206886 237.85757365172367 -34.408357268072905 245.42903980474694 -36.771240234375 252.669921875 C-37.91077603460985 255.796964343053 -39.272208489175 258.8390919434919 -40.583251953125 261.898193359375 C-57.74325195312508 261.898193359375 -74.90325195312494 261.898193359375 -92.583251953125 261.898193359375 C-91.58135792929511 256.8887232402253 -90.86855368022157 255.60257633619142 -87.708251953125 251.898193359375 C-84.98686309673417 248.6847452632676 -82.72280950059746 245.521340954092 -80.583251953125 241.898193359375 C-79.24991861979174 240.56486002604163 -77.91658528645826 239.23152669270837 -76.583251953125 237.898193359375 C-73.83210300704627 234.06325846484106 -71.61125420178223 230.15699808155512 -69.583251953125 225.898193359375 C-68.92325195312492 225.898193359375 -68.26325195312506 225.898193359375 -67.583251953125 225.898193359375 C-67.32801757812501 225.08028320312496 -67.32801757812501 225.08028320312496 -67.067626953125 224.245849609375 C-66.82528320312508 223.49174804687505 -66.58293945312494 222.73764648437498 -66.333251953125 221.960693359375 C-66.10122070312502 221.22979492187505 -65.86918945312505 220.498896484375 -65.630126953125 219.745849609375 C-64.6862111492477 217.17825773987283 -63.634897654540396 214.715871785947 -62.517822265625 212.22021484375 C-62.15601867675787 211.4105979919434 -61.79421508789062 210.6009811401367 -61.42144775390625 209.76683044433594 C-61.1448431396484 209.15018020629884 -60.86823852539055 208.53352996826175 -60.583251953125 207.898193359375 C-61.64560058593747 208.11185546875004 -62.707949218749945 208.32551757812496 -63.802490234375 208.545654296875 C-79.57904138789343 211.4412748234348 -95.30389050217616 211.28687361890957 -111.27203369140625 211.1624755859375 C-114.19629670139966 211.14337182691747 -117.12049604669994 211.1393216903067 -120.04481315612793 211.13576126098633 C-123.59671594971996 211.13055678915373 -127.14856595615413 211.11610162400245 -130.700439453125 211.101318359375 C-131.98723602294922 211.09706848144538 -133.27403259277344 211.09281860351564 -134.59982299804688 211.08843994140625 C-142.9707751274844 211.0233579290067 -151.2417449715557 210.59332729534435 -159.583251953125 209.898193359375 C-160.59084556551977 215.64147695002532 -160.48086933173062 220.37352155701228 -159.583251953125 226.148193359375 C-158.13730242272038 236.0222459745355 -157.41418052899348 246.44970232429318 -163.583251953125 254.898193359375 C-168.32846117107584 259.91455738978016 -174.46603096541293 261.69171747756354 -181.22119140625 262.13916015625 C-185.36405009334675 262.22894802041014 -189.5031975964124 262.160874975939 -193.645751953125 262.085693359375 C-195.09821200097736 262.07061591943193 -196.55068722584122 262.0569329368917 -198.003173828125 262.044677734375 C-201.53018652192083 262.0119219659148 -205.05661980467585 261.9603099946336 -208.583251953125 261.898193359375 C-208.583251953125 260.57819335937506 -208.583251953125 259.258193359375 -208.583251953125 257.898193359375 C-207.92325195312503 257.898193359375 -207.263251953125 257.898193359375 -206.583251953125 257.898193359375 C-206.315126953125 257.350341796875 -206.047001953125 256.802490234375 -205.770751953125 256.238037109375 C-203.95255908502293 252.65547945150274 -201.97372128824202 249.16256198924793 -200.020751953125 245.652099609375 C-197.55003713171084 240.91880083465503 -196.01998732740412 237.3055337662953 -196.583251953125 231.898193359375 C-198.32662182746174 228.14994812955103 -200.28457892116637 226.28688762389675 -203.583251953125 223.898193359375 C-203.583251953125 223.23819335937503 -203.583251953125 222.57819335937506 -203.583251953125 221.898193359375 C-207.01304512652257 224.92747989893633 -208.55894299473255 227.62480685756566 -210.145751953125 231.898193359375 C-210.57243164062504 233.046748046875 -210.99911132812497 234.195302734375 -211.438720703125 235.378662109375 C-212.50176701250348 238.64762021432387 -213.26184057920955 241.8482654374643 -213.958251953125 245.210693359375 C-215.61167678492234 252.3850367387255 -219.53670503568878 256.8671620810842 -225.583251953125 260.898193359375 C-229.91419572821593 262.128602691422 -234.26251232475227 262.02700301542836 -238.727783203125 261.995849609375 C-239.4975700378418 261.99443466186517 -240.2673568725586 261.99301971435546 -241.0604705810547 261.99156188964844 C-243.50560483303866 261.985989420539 -245.95064563619246 261.97344206914363 -248.395751953125 261.960693359375 C-250.05916208375055 261.955674798397 -251.72257365770975 261.95111251406115 -253.385986328125 261.947021484375 C-257.4517772362459 261.9360290155563 -261.5174987797428 261.918783461149 -265.583251953125 261.898193359375 C-264.7902852244507 257.275029036143 -263.04026557771687 253.67697675383124 -260.708251953125 249.648193359375 C-260.356337890625 249.01139648437493 -260.004423828125 248.37459960937508 -259.641845703125 247.718505859375 C-256.9536507261311 243.02165961704372 -256.9536507261311 243.02165961704372 -253.583251953125 241.898193359375 C-252.90299558421623 239.90277467724252 -252.2383469820898 237.90201344797333 -251.583251953125 235.898193359375 C-250.958056640625 235.124755859375 -250.33286132812498 234.351318359375 -249.688720703125 233.554443359375 C-242.57184850746034 224.57582908655127 -241.64651471819923 213.94963986735627 -242.337646484375 202.942626953125 C-242.75181676549977 199.49505047783782 -243.65141370031097 196.24008717368406 -244.583251953125 192.898193359375 C-245.33284179687496 192.96748046874995 -246.08243164062503 193.03676757812502 -246.854736328125 193.108154296875 C-257.26606497618735 193.96811412935745 -267.6418688878153 194.11798592107425 -278.084228515625 194.138427734375 C-281.05033943025614 194.14808618736959 -284.0157413597565 194.17919308091905 -286.981689453125 194.210693359375 C-299.6432102145921 194.28012801357568 -311.82086108245517 193.25705650213524 -324.3212890625 191.259521484375 C-327.17513597602317 190.80364523699086 -330.03493368104745 190.39367120965153 -332.895751953125 189.984130859375 C-334.4584887939337 189.74871857886853 -336.02101022140664 189.5118691794986 -337.583251953125 189.273193359375 C-338.387626953125 189.15202148437504 -339.192001953125 189.03084960937497 -340.020751953125 188.906005859375 C-340.804501953125 188.78741210937505 -341.588251953125 188.668818359375 -342.395751953125 188.546630859375 C-343.116337890625 188.43802734375004 -343.836923828125 188.32942382812496 -344.579345703125 188.217529296875 C-346.3784037033007 187.93083730561898 -348.1692148623446 187.59348289302034 -349.958251953125 187.249755859375 C-352.6868793664472 186.6886465518952 -352.6868793664472 186.6886465518952 -355.583251953125 187.898193359375 C-362.71623338860894 188.6490335104786 -367.6140808705296 186.83744430950526 -373.583251953125 182.898193359375 C-379.4826365975184 177.96892974539287 -382.53669202452096 170.7917498734281 -385.583251953125 163.898193359375 C-386.074384765625 162.78959960937505 -386.565517578125 161.68100585937498 -387.071533203125 160.538818359375 C-390.48280236542263 152.04427768480855 -391.96855921454846 144.00658860323426 -390.583251953125 134.898193359375 C-389.563720703125 133.003662109375 -389.563720703125 133.003662109375 -387.583251953125 131.898193359375 C-384.7999764032923 131.59509319478593 -382.1820401457784 131.43869952657974 -379.395751953125 131.398193359375 C-373.1533498015286 131.18318675371256 -368.3014490375688 130.58910963440735 -362.583251953125 127.898193359375 C-361.525576171875 127.69709960937507 -361.525576171875 127.69709960937507 -360.446533203125 127.491943359375 C-359.831650390625 127.29600585937499 -359.216767578125 127.10006835937497 -358.583251953125 126.898193359375 C-358.253251953125 125.90819335937499 -357.92325195312503 124.91819335937498 -357.583251953125 123.898193359375 C-355.14575195312494 121.210693359375 -355.14575195312494 121.210693359375 -352.583251953125 118.898193359375 C-351.92325195312503 118.898193359375 -351.263251953125 118.898193359375 -350.583251953125 118.898193359375 C-350.302236328125 118.31295898437497 -350.021220703125 117.72772460937495 -349.731689453125 117.124755859375 C-348.66835859759794 115.06319603743475 -347.4953716346332 113.19977377437135 -346.208251953125 111.273193359375 C-343.3243620759988 106.72192172438236 -341.4622295702323 101.92794567067102 -339.583251953125 96.898193359375 C-338.92019695023293 95.23008656262544 -338.2545046350234 93.56301829289396 -337.583251953125 91.898193359375 C-338.841376953125 91.81569335937502 -340.099501953125 91.73319335937498 -341.395751953125 91.648193359375 C-349.9036130749939 90.68200092913122 -357.4924641064382 87.9889812060618 -363.583251953125 81.898193359375 C-364.408251953125 81.093818359375 -365.233251953125 80.28944335937501 -366.083251953125 79.460693359375 C-370.07497626777865 74.50365009281165 -372.6034270715547 67.88976865886411 -374.583251953125 61.898193359375 C-374.088251953125 60.413193359374986 -374.088251953125 60.413193359374986 -373.583251953125 58.898193359375 C-372.115654296875 58.608154296875 -372.115654296875 58.608154296875 -370.618408203125 58.312255859375 C-363.5878944663547 56.91763296606234 -356.571943759342 55.4921055257052 -349.583251953125 53.898193359375 C-349.860400390625 52.859208984375016 -350.137548828125 51.82022460937503 -350.423095703125 50.749755859375 C-352.4108152641439 43.14900803338719 -354.2041355702771 35.783814122611034 -354.583251953125 27.898193359375 C-350.05908342114304 28.329066552897075 -345.76589538054645 28.84250269886104 -341.352783203125 29.925537109375 C-336.589494100592 31.008259691836713 -332.0767499350595 31.165300888972297 -327.208251953125 31.085693359375 C-326.37028076171873 31.079248046875023 -325.5323095703125 31.07280273437499 -324.6689453125 31.066162109375 C-320.46794532570203 31.014051633717486 -316.32505210531923 30.85520082451194 -312.145751953125 30.398193359375 C-300.9850448013714 29.21051247311641 -288.6419978248887 28.328262785010054 -277.969970703125 32.241943359375 C-271.4682739517324 34.02964393913595 -266.8468043631221 32.48021360960678 -261.145751953125 29.335693359375 C-259.7399687763584 28.596641738608355 -258.33235919500646 27.86105547955799 -256.923095703125 27.128662109375 C-256.2075048828125 26.755317382812507 -255.49191406249997 26.381972656250014 -254.754638671875 25.997314453125 C-242.7300227668191 19.910646946428187 -230.05566885108408 14.994245041960653 -217.255126953125 10.835693359375 C-214.4698559010866 9.929542242653326 -214.4698559010866 9.929542242653326 -211.583251953125 8.335693359375 C-207.70341500164568 6.476604820124464 -203.76481215581214 5.608006062338063 -199.583251953125 4.644287109375 C-196.56591838652304 3.9373433457429883 -196.56591838652304 3.9373433457429883 -193.622314453125 2.898193359375 C-190.42043355285136 1.8446181531152774 -187.26051947481983 1.1325339930991163 -183.958251953125 0.460693359375 C-179.56535816337106 -0.45086645726843244 -175.22806651529766 -1.4379921801819933 -170.895751953125 -2.601806640625 C-163.39724528155085 -4.519095495070303 -155.76212157434554 -5.572897474930755 -148.114990234375 -6.708251953125 C-145.31379979383655 -7.1436925500534585 -142.52425146730297 -7.633740491303399 -139.731689453125 -8.121337890625 C-96.10599592315123 -15.39573930465275 -41.63601459362599 -15.949964789017145 0 0 Z M-89.633056640625 1.890380859375 C-127.87505576060391 1.9661638648146322 -166.0484379107666 7.8073471813695505 -202.276123046875 20.123779296875 C-204.2605003166143 20.78985810106684 -206.25868902266154 21.414534220337373 -208.259033203125 22.031005859375 C-217.11282001644224 24.78824050712086 -225.64507342570363 28.296401401524975 -234.208251953125 31.835693359375 C-235.42391845703128 32.33802490234376 -236.6395849609375 32.84035644531252 -237.89208984375 33.35791015625 C-241.4654084935392 34.849716851987125 -245.02487321655963 36.37114166280372 -248.583251953125 37.898193359375 C-249.1971276855469 38.152078247070335 -249.81100341796878 38.405963134765614 -250.4434814453125 38.66754150390625 C-252.25470077339168 39.416960374029884 -254.05589667647916 40.19046171927715 -255.856689453125 40.964599609375 C-256.9103369140625 41.40876220703126 -257.963984375 41.85292480468752 -259.049560546875 42.310546875 C-262.0727286085526 44.20490627999993 -262.76427243416515 45.464857513528386 -263.583251953125 48.898193359375 C-262.7692818591547 51.40734466978557 -262.7692818591547 51.40734466978557 -261.583251953125 53.898193359375 C-260.1881229362447 63.140923096206734 -262.4923203749916 70.18970218987016 -267.583251953125 77.898193359375 C-269.71003297950176 80.50052790717757 -271.86384144923704 82.90769701116835 -274.583251953125 84.898193359375 C-275.24325195312497 84.898193359375 -275.903251953125 84.898193359375 -276.583251953125 84.898193359375 C-275.964501953125 83.82569335937501 -275.345751953125 82.75319335937502 -274.708251953125 81.648193359375 C-270.808081282292 73.83402162525925 -268.6075968114816 62.32203013729338 -271.235595703125 53.777099609375 C-273.4621096648043 48.72205288951079 -276.82623707417986 44.75635822427137 -281.583251953125 41.898193359375 C-286.3648275238614 40.41944684027692 -291.4387729831469 40.751308242509765 -296.395751953125 40.773193359375 C-297.69222656249997 40.767392578125 -297.69222656249997 40.767392578125 -299.014892578125 40.761474609375 C-308.52546798237444 40.27649455182734 -308.52546798237444 40.27649455182734 -316.583251953125 43.898193359375 C-319.208251953125 44.523193359375 -319.208251953125 44.523193359375 -321.583251953125 44.898193359375 C-321.583251953125 44.23819335937503 -321.583251953125 43.57819335937501 -321.583251953125 42.898193359375 C-327.193251953125 42.898193359375 -332.803251953125 42.898193359375 -338.583251953125 42.898193359375 C-339.80777012741055 44.82187794934487 -339.80777012741055 44.82187794934487 -339.165283203125 46.781005859375 C-336.1314728518611 55.62063601991042 -332.589583310525 65.89502768067501 -323.708251953125 70.335693359375 C-322.656376953125 70.614130859375 -322.656376953125 70.614130859375 -321.583251953125 70.898193359375 C-321.583251953125 71.55819335937497 -321.583251953125 72.218193359375 -321.583251953125 72.898193359375 C-320.0247343983175 73.71830648044846 -318.46123478885374 74.52895548928416 -316.895751953125 75.335693359375 C-316.025634765625 75.788154296875 -315.155517578125 76.24061523437501 -314.259033203125 76.706787109375 C-303.42429394021235 81.5310140804529 -292.2934538289521 78.4005075494265 -281.583251953125 74.898193359375 C-285.346946338594 81.1710173351567 -289.5938717463622 85.37625204765646 -296.583251953125 87.898193359375 C-303.0229732057517 88.5788143047746 -309.2820184257302 88.51931607895085 -315.583251953125 86.898193359375 C-318.7511382183537 87.09227752077396 -318.7511382183537 87.09227752077396 -321.583251953125 88.898193359375 C-322.5839465605043 91.21310491893473 -323.20381870626477 93.44061524859512 -323.747314453125 95.902099609375 C-324.023173828125 96.56081054687502 -324.29903320312496 97.21952148437498 -324.583251953125 97.898193359375 C-325.2273803710938 98.03435058593749 -325.8715087890625 98.17050781249998 -326.53515625 98.310791015625 C-327.2110278320313 98.5046337890625 -327.8868994140625 98.69847656249999 -328.583251953125 98.898193359375 C-329.8193625673224 101.5117703027754 -330.81585529809485 103.99680701879828 -331.770751953125 106.710693359375 C-337.0961048960337 120.61278991872564 -346.2924174552418 133.04389790615028 -359.895751953125 139.835693359375 C-365.92279034337537 142.33976375073985 -372.12674890228135 143.21045774028676 -378.583251953125 143.898193359375 C-378.11086945145456 150.0254736346651 -376.7379439344236 154.53677276508472 -373.895751953125 159.960693359375 C-373.53489501953123 160.658076171875 -373.1740380859375 161.355458984375 -372.80224609375 162.073974609375 C-370.21558631078767 166.95269122195532 -367.8358528722897 171.27895853455402 -363.583251953125 174.898193359375 C-357.4787805566326 175.66873325378515 -353.77017190841195 173.88833475656088 -348.645751953125 170.960693359375 C-347.5463830566406 170.3570495605469 -347.5463830566406 170.3570495605469 -346.4248046875 169.7412109375 C-342.6849345150242 167.67837306732565 -338.97952199557415 165.555337833159 -335.270751953125 163.437255859375 C-324.96628553264054 157.556405720631 -315.0470542454362 153.11781442870495 -303.583251953125 149.898193359375 C-306.1360261393193 147.10586265130905 -307.806854777858 146.4085173019787 -311.583251953125 145.898193359375 C-311.583251953125 145.23819335937503 -311.583251953125 144.57819335937506 -311.583251953125 143.898193359375 C-298.6915955906127 144.10859131187897 -298.6915955906127 144.10859131187897 -294.833251953125 147.273193359375 C-290.9643484360968 151.78691412924115 -291.1679003912311 156.21850223394222 -291.583251953125 161.898193359375 C-292.583251953125 165.460693359375 -292.583251953125 165.460693359375 -293.583251953125 167.898193359375 C-293.704423828125 167.21112304687495 -293.82559570312503 166.524052734375 -293.950439453125 165.816162109375 C-294.118017578125 164.91510742187506 -294.285595703125 164.014052734375 -294.458251953125 163.085693359375 C-294.620673828125 162.192373046875 -294.783095703125 161.29905273437498 -294.950439453125 160.378662109375 C-295.4951364403054 157.67091489518145 -295.4951364403054 157.67091489518145 -297.583251953125 154.898193359375 C-303.30933333003276 153.88366242472762 -307.19881779169015 156.47806817047262 -311.958251953125 159.273193359375 C-312.7353955078125 159.71711425781245 -313.51253906249997 160.16103515625002 -314.313232421875 160.618408203125 C-322.20135795840133 165.16402642297862 -329.91726275551054 169.98945368242835 -337.583251953125 174.898193359375 C-334.846076588974 177.63536872352597 -331.9539306801139 177.78758625521664 -328.270751953125 178.398193359375 C-327.51366943359375 178.5249243164062 -326.7565869140625 178.65165527343754 -325.9765625 178.7822265625 C-298.75720819396275 183.15226829602648 -268.67879466292754 184.94971295854623 -241.583251953125 178.898193359375 C-241.45370117187497 177.231435546875 -241.45370117187497 177.231435546875 -241.321533203125 175.531005859375 C-240.31470021325094 164.2450809577481 -238.79087603549044 155.5988808449448 -230.270751953125 147.460693359375 C-225.5365561523705 143.54846143721556 -220.88161460636184 140.898193359375 -214.583251953125 140.898193359375 C-215.065361328125 141.250107421875 -215.547470703125 141.60202148437497 -216.044189453125 141.964599609375 C-220.67163474837156 145.58156195239417 -222.32151680693426 148.01009601048497 -223.583251953125 153.898193359375 C-224.56747341117563 155.90600513379832 -225.56559268612455 157.9071208804612 -226.583251953125 159.898193359375 C-229.2319969412398 167.1220433269607 -227.52292202024898 175.06518099599316 -224.583251953125 181.898193359375 C-220.29837846082307 189.6109656455185 -215.445843353923 195.4527549795548 -208.583251953125 200.898193359375 C-204.3964291572497 204.40355883982795 -200.2605789383656 207.96955508967085 -196.137939453125 211.550048828125 C-194.86534191473288 212.65357954530486 -193.58478031846425 213.7479200758586 -192.302001953125 214.839599609375 C-187.34197642480967 219.35365793010055 -185.0104522636579 224.71274740672663 -182.583251953125 230.898193359375 C-183.24325195312497 230.898193359375 -183.903251953125 230.898193359375 -184.583251953125 230.898193359375 C-184.71602539062496 231.94620117187503 -184.84879882812504 232.99420898437506 -184.985595703125 234.073974609375 C-185.16382430198655 235.45290113740907 -185.34221836511233 236.8318062860003 -185.520751953125 238.210693359375 C-185.60776367187498 238.900986328125 -185.694775390625 239.59127929687497 -185.784423828125 240.302490234375 C-186.1753533065846 243.2996162358985 -186.62475235103585 246.0226945531076 -187.583251953125 248.898193359375 C-185.48083592015485 249.0331558721905 -183.37595585533256 249.13016643415392 -181.270751953125 249.210693359375 C-180.098994140625 249.26870117187502 -178.927236328125 249.32670898437505 -177.719970703125 249.386474609375 C-174.48240776497573 249.21437650252415 -174.48240776497573 249.21437650252415 -172.680908203125 246.847412109375 C-171.32247562307043 243.1975309779117 -171.25545941860537 240.28782008535734 -171.333251953125 236.398193359375 C-171.356455078125 234.464599609375 -171.356455078125 234.464599609375 -171.380126953125 232.491943359375 C-171.550492761096 229.4777790645038 -171.9902868917477 226.84021231774716 -172.583251953125 223.898193359375 C-173.784156359014 207.617360770966 -173.784156359014 207.617360770966 -169.196533203125 201.659912109375 C-168.05143318158366 200.40945179529479 -166.90260646397212 199.162399621634 -165.751220703125 197.917724609375 C-152.4255519443318 183.48815429659885 -146.40685238130783 167.81694482022772 -146.395751953125 148.335693359375 C-146.38350585937496 147.23161132812504 -146.37125976562504 146.12752929687497 -146.358642578125 144.989990234375 C-146.33633509518495 132.25241747561745 -148.71348499212127 120.55739447618612 -152.145751953125 108.335693359375 C-152.77214508400834 106.06358304144567 -153.39845100637638 103.79144867889397 -154.024658203125 101.519287109375 C-154.43760131835938 100.04093383789063 -154.43760131835938 100.04093383789063 -154.85888671875 98.53271484375 C-155.46522502243954 96.32745814165582 -156.04075061621495 94.11984983490771 -156.583251953125 91.898193359375 C-142.7828376839007 114.4478898777154 -132.13003589782716 138.57627235157213 -137.696533203125 165.777099609375 C-140.46766805229356 175.53100597274795 -144.4138390440312 185.1891333161716 -150.516845703125 193.331787109375 C-151.77083895612697 194.85790756885217 -151.77083895612697 194.85790756885217 -151.583251953125 196.898193359375 C-138.84997515577822 198.88298574267446 -126.32897585322985 199.2993571273903 -113.458251953125 199.273193359375 C-112.44945983886714 199.2726495361328 -111.4406677246094 199.2721057128906 -110.40130615234375 199.27154541015625 C-81.58406416407274 199.20039453713332 -52.35653124682642 196.2837001502205 -25.583251953125 184.898193359375 C-26.755013407276465 181.8755962379322 -28.010435304485554 178.99123671211044 -29.536376953125 176.132568359375 C-38.1287898067377 159.09121522298915 -39.53571135303764 137.9715882308842 -33.583251953125 119.898193359375 C-26.884680986449894 100.18308108245623 -12.602057659584489 84.48546532973035 4.416748046875 72.898193359375 C3.7773730468750273 73.51694335937498 3.1379980468750546 74.13569335937501 2.479248046875 74.773193359375 C1.4566235444239055 75.8131016562337 0.43610164268227436 76.85507860748828 -0.583251953125 77.898193359375 C-1.2496972656249454 78.55690429687502 -1.9161425781250045 79.21561523437498 -2.602783203125 79.894287109375 C-20.87485445158086 98.8703611029552 -27.455670404832517 123.27157653482595 -27.024658203125 148.964599609375 C-26.65313180158455 157.61219688660822 -24.589053558206956 164.30590568470961 -20.583251953125 171.898193359375 C-20.07665039062499 172.94362304687502 -19.570048828124982 173.98905273437504 -19.048095703125 175.066162109375 C-11.678231031232144 189.06347265328952 1.2767437828031234 201.82819122733906 15.416748046875 208.898193359375 C16.076748046875082 208.898193359375 16.736748046874936 208.898193359375 17.416748046875 208.898193359375 C14.435318415319216 220.34937565806752 11.364534612636362 231.6905400729779 7.246337890625 242.79248046875 C5.8837465361739305 246.25152526294494 5.8837465361739305 246.25152526294494 5.416748046875 249.898193359375 C11.686748046874982 249.898193359375 17.956748046874964 249.898193359375 24.416748046875 249.898193359375 C24.563701171874982 247.85051757812494 24.563701171874982 247.85051757812494 24.713623046875 245.761474609375 C25.678571057437694 233.5137992224079 26.90982739835397 222.37044254757404 32.729248046875 211.335693359375 C34.54025274414096 207.6466097167962 34.58903275778766 207.46989122127843 33.416748046875 203.898193359375 C32.190081231669865 199.98329926829467 32.23297745087643 196.08824372102174 32.229248046875 192.023193359375 C32.217001953124964 191.32838867187502 32.20475585937493 190.63358398437504 32.192138671875 189.917724609375 C32.177923394033996 184.88551625365062 32.48120098616687 180.23514648665048 35.791748046875 176.238037109375 C36.327998046874995 175.775263671875 36.86424804687499 175.312490234375 37.416748046875 174.835693359375 C55.20164715516762 157.93819046438603 67.37132220190051 132.02857928442472 68.532470703125 107.448486328125 C68.65447350670661 102.25989555141791 68.57883599838203 97.08500780760068 68.416748046875 91.898193359375 C67.75674804687492 91.898193359375 67.09674804687506 91.898193359375 66.416748046875 91.898193359375 C66.48249023437506 90.41899414062499 66.48249023437506 90.41899414062499 66.549560546875 88.909912109375 C66.54306329595647 84.59898612492282 65.54300480640404 80.81258231646638 64.291748046875 76.710693359375 C64.07236572265629 75.97471923828124 63.85298339843757 75.23874511718748 63.626953125 74.48046875 C61.57942542086903 67.89560247746971 58.79252389476915 61.91890698500055 55.416748046875 55.898193359375 C54.75674804687492 55.898193359375 54.096748046875064 55.898193359375 53.416748046875 55.898193359375 C52.75674804687492 53.91819335937498 52.096748046875064 51.93819335937502 51.416748046875 49.898193359375 C50.75674804687492 49.898193359375 50.096748046875064 49.898193359375 49.416748046875 49.898193359375 C49.251748046875036 49.21756835937498 49.08674804687507 48.536943359375016 48.916748046875 47.835693359375 C47.07153529441723 44.22215171914513 44.78123553753949 42.35400731560145 41.686279296875 39.788818359375 C39.39301680643996 37.87842413326388 37.22623836920707 35.8688601957906 35.041748046875 33.835693359375 C30.513679401562626 29.811604957119698 25.704848510954776 26.820146768956647 20.416748046875 23.898193359375 C19.067099609374964 23.124755859375 19.067099609374964 23.124755859375 17.690185546875 22.335693359375 C11.7497996016574 18.988997052210152 5.8393733752479875 16.179361726333127 -0.583251953125 13.898193359375 C-1.4695629882812682 13.56585693359375 -1.4695629882812682 13.56585693359375 -2.373779296875 13.226806640625 C-30.52767133236614 2.7867827671718715 -60.00237900445484 1.9481510223164378 -89.633056640625 1.890380859375 Z M81.416748046875 28.898193359375 C81.08176504177663 31.229843697606725 81.08176504177663 31.229843697606725 81.416748046875 33.898193359375 C83.31258914036255 36.21196483040177 83.31258914036255 36.21196483040177 85.416748046875 37.898193359375 C86.10168178176264 35.04041302662955 86.10168178176264 35.04041302662955 86.416748046875 31.898193359375 C85.75674804687492 30.90819335937499 85.09674804687506 29.918193359374982 84.416748046875 28.898193359375 C83.42674804687499 28.898193359375 82.43674804687498 28.898193359375 81.416748046875 28.898193359375 Z " fill="#3D3332" transform="translate(649.583251953125,401.101806640625)"/>
<path d="M0 0 C1.49609375 1.28125 1.49609375 1.28125 2.49609375 4.28125 C3.4242187500000227 4.714375000000018 3.4242187500000227 4.714375000000018 4.37109375 5.15625 C7.257178389830642 6.684177162263268 8.16396661796955 8.336547918669567 9.49609375 11.28125 C9.53125 13.2734375 9.53125 13.2734375 8.49609375 15.28125 C5.991419602575434 16.417021093104267 3.7347381014338907 17.258816074576202 1.12109375 18.03125 C0.4353125000000091 18.251679687499973 -0.2504687499999818 18.472109374999945 -0.95703125 18.69921875 C-3.9056206290918 19.62280413917074 -6.398286986996027 20.28125 -9.50390625 20.28125 C-9.757851562500036 19.679257812500055 -10.011796874999959 19.077265624999995 -10.2734375 18.45703125 C-12.367628286574586 14.753970081358602 -15.650497028786276 12.921741244538453 -19.50390625 11.28125 C-24.281370191084306 11.28125 -27.771831613447148 12.274856542776888 -31.50390625 15.28125 C-35.50992497698428 20.6686544949099 -35.13913259546723 26.858405840276077 -34.50390625 33.28125 C-33.21838660202195 37.280644460376266 -31.97778930846448 38.85249866138929 -28.87890625 41.65625 C-24.58429506873904 43.72402575394051 -21.190170872118983 44.150004938859865 -16.50390625 43.28125 C-14.158141366697691 42.1683308733617 -12.53247489572891 40.9457165811109 -10.50390625 39.28125 C-14.133906249999995 38.62125000000003 -17.76390624999999 37.96124999999995 -21.50390625 37.28125 C-21.50390625 32.331249999999955 -21.50390625 27.381250000000023 -21.50390625 22.28125 C-10.613906250000014 22.28125 0.2760937499999727 22.28125 11.49609375 22.28125 C11.49609375 34.16369334668195 11.091110269089654 43.08200556928739 3.49609375 52.28125 C2.836093750000032 52.28125 2.17609374999995 52.28125 1.49609375 52.28125 C1.166093749999959 53.27125000000001 0.8360937500000318 54.26125000000002 0.49609375 55.28125 C-6.598106647416557 60.11542837659135 -13.316642826881548 59.82088580448965 -21.69140625 59.65625 C-22.948886718750032 59.654960937499936 -24.20636718749995 59.653671874999986 -25.501953125 59.65234375 C-35.242207468385345 59.55903636406015 -40.21602065430466 58.12795100599817 -47.41796875 51.48828125 C-53.58828060571568 44.95976776970156 -55.453249073897155 36.299787827718205 -55.87890625 27.53125 C-55.57598706497902 17.263883939287552 -52.29188555587746 8.7119025175449 -45.078125 1.37890625 C-31.549848679306592 -9.644894029533248 -14.276699935427587 -8.962435371938454 0 0 Z " fill="#3C3A38" transform="translate(737.50390625,702.71875)"/>
<path d="M0 0 C0.7357324218750136 0.0000805664062681899 1.4714648437500273 0.0001611328125363798 2.2294921875 0.000244140625 C4.439656521531333 -0.0019170370158008154 6.649300803510926 -0.019993056574435286 8.859375 -0.0390625 C18.844807859334026 -0.07955584710271069 29.612502061224916 -0.08294286560703767 37.9765625 6.185546875 C43.8563143438534 13.538884168553636 44.750457821403586 19.877003149948337 43.9765625 29.185546875 C42.30933740811764 35.18755720577644 38.9160115165995 38.59322031747308 33.9765625 42.185546875 C37.08877081763819 48.79719680325445 40.61238775747694 54.88768281906641 44.71875 60.935546875 C45.13382812499998 61.67804687499995 45.548906250000016 62.420546875000014 45.9765625 63.185546875 C45.646562500000016 63.84554687499997 45.31656250000003 64.50554687499994 44.9765625 65.185546875 C38.04656249999999 65.185546875 31.116562499999986 65.185546875 23.9765625 65.185546875 C23.316562500000032 62.875546875000055 22.656562500000007 60.565546874999995 21.9765625 58.185546875 C21.316562500000032 58.185546875 20.656562500000007 58.185546875 19.9765625 58.185546875 C19.638828124999975 57.486875000000055 19.301093750000007 56.788203124999995 18.953125 56.068359375 C18.507109375000027 55.15828124999996 18.061093749999998 54.24820312500003 17.6015625 53.310546875 C17.160703124999998 52.405624999999986 16.719843749999995 51.50070312499997 16.265625 50.568359375 C15.071535505047336 48.09020215564726 15.071535505047336 48.09020215564726 12.9765625 46.185546875 C10.996562499999982 45.85554687499996 9.01656250000002 45.52554687500003 6.9765625 45.185546875 C6.9765625 51.78554687500002 6.9765625 58.385546875000045 6.9765625 65.185546875 C0.7065625000000182 65.185546875 -5.5634375000000205 65.185546875 -12.0234375 65.185546875 C-12.045991526327612 56.85825336983214 -12.064354323572275 48.530983439732495 -12.075249671936035 40.203667640686035 C-12.080477755375568 36.33734569988985 -12.08757403927558 32.47104566100347 -12.098876953125 28.604736328125 C-12.1097084984562 24.87651286811115 -12.115714899578904 21.148310530410527 -12.118314743041992 17.420072555541992 C-12.120168510176029 15.994650316602247 -12.123788207075904 14.569229288122983 -12.129167556762695 13.143815994262695 C-12.136381429335302 11.153912797476437 -12.136845583250874 9.163988534912846 -12.136962890625 7.174072265625 C-12.139183502197284 6.039339752197293 -12.14140411376951 4.904607238769586 -12.143692016601563 3.7354888916015625 C-11.862694699906626 -2.222930672519283 -4.6495050649108975 0.016135898974198426 0 0 Z M6.9765625 17.185546875 C6.9765625 21.145546875000036 6.9765625 25.10554687499996 6.9765625 29.185546875 C9.059607881904867 29.23973013637908 11.143060182663191 29.278422389930938 13.2265625 29.310546875 C14.38671875 29.33375000000001 15.546875 29.356953125000018 16.7421875 29.380859375 C19.826652672130706 29.194599400837546 21.4887152478629 28.972759340139078 23.9765625 27.185546875 C25.058796162151907 24.27549784818825 25.058796162151907 24.27549784818825 24.9765625 21.185546875 C23.469409611696506 19.104240505438042 22.26429813186087 18.329414690930435 19.9765625 17.185546875 C17.76927019975551 17.11461845918234 15.559887975461947 17.101396625240568 13.3515625 17.123046875 C11.568789062500002 17.136582031249986 11.568789062500002 17.136582031249986 9.75 17.150390625 C8.377148437500011 17.16779296874995 8.377148437500011 17.16779296874995 6.9765625 17.185546875 Z " fill="#373433" transform="translate(390.0234375,696.814453125)"/>
<path d="M0 0 C4.8888248571336135 -0.12519644461178814 9.776682530242397 -0.21507557425479717 14.666748046875 -0.274658203125 C16.32414029642507 -0.2995391521496913 17.98142594009596 -0.33345730392727546 19.638427734375 -0.377197265625 C31.537491123106747 -0.6830395359734212 42.1361297502101 -0.29089998421295604 52 7.3125 C57.890760903606974 15.228209964221833 61.394137075405865 21.248659887939766 61.375 31.1875 C61.37258300781252 32.470802001953075 61.37258300781252 32.470802001953075 61.3701171875 33.780029296875 C61.249329130290675 39.97870660532726 60.44707212725416 44.73931152704756 57 50 C56.44312500000001 51.051874999999995 55.88625000000002 52.10374999999999 55.3125 53.1875 C50.762262874115095 58.72157218013035 44.873976618128154 62.1203508157771 38 64 C35.02992656864751 64.25770427236262 32.080902760998015 64.2337442308808 29.1015625 64.1953125 C27.84912246704107 64.19106765747074 27.84912246704107 64.19106765747074 26.571380615234375 64.18673706054688 C23.9224370851897 64.17560300606578 21.27384016484723 64.15051127180391 18.625 64.125 C16.821619490016133 64.11496143009344 15.018233644094494 64.10583711506126 13.21484375 64.09765625 C8.809763670695418 64.07568590470407 4.404940467473978 64.0412032134675 0 64 C-0.1702950424670462 57.29651501832507 -0.3297617331704146 50.592831103089566 -0.482177734375 43.888916015625 C-0.5351022611530993 41.614770012396775 -0.5903832995301741 39.34067744554636 -0.648193359375 37.066650390625 C-0.9621798485064801 24.651897642097083 -1.2137013269012868 12.373678699806078 0 0 Z M18 16 C18 26.559999999999945 18 37.120000000000005 18 48 C28.512839416059933 48.5817454071248 28.512839416059933 48.5817454071248 37 45 C41.082895538335606 40.87446325499775 42.89299261218855 36.885406329629745 43 31 C42.34163026375484 27.858134344964697 42.34163026375484 27.858134344964697 41 25 C40.66999999999996 24.133749999999964 40.34000000000003 23.26750000000004 40 22.375 C36.8255292464753 18.605315980189403 32.748295766552246 17.08549801048889 28 16 C24.700000000000045 16 21.399999999999977 16 18 16 Z " fill="#322F2E" transform="translate(503,698)"/>
<path d="M0 0 C1.3556833648681845 0.029978256225604127 1.3556833648681845 0.029978256225604127 2.7387542724609375 0.0605621337890625 C3.759737091064437 0.08065841674806506 4.780719909667994 0.10075469970706763 5.8326416015625 0.1214599609375 C6.9430430603027276 0.14849502563481565 8.053444519042955 0.1755300903320176 9.197494506835938 0.2033843994140625 C10.893369522094702 0.2388008880615189 10.893369522094702 0.2388008880615189 12.623504638671875 0.274932861328125 C16.25115327846879 0.3517918798060009 19.878600253053605 0.43572011198739347 23.506088256835938 0.5197906494140625 C25.958552192824527 0.5729890825215307 28.41102610806638 0.6257296015513703 30.863510131835938 0.6779937744140625 C36.89033166906165 0.8074370019653543 42.91698144187711 0.9432223847812793 48.94358825683594 1.0822906494140625 C48.94358825683594 6.362290649414035 48.94358825683594 11.642290649414008 48.94358825683594 17.082290649414063 C38.05358825683595 17.082290649414063 27.163588256835965 17.082290649414063 15.943588256835938 17.082290649414063 C15.943588256835938 19.72229064941405 15.943588256835938 22.362290649414035 15.943588256835938 25.082290649414063 C25.183588256835947 25.082290649414063 34.423588256835956 25.082290649414063 43.94358825683594 25.082290649414063 C43.94358825683594 30.362290649414035 43.94358825683594 35.64229064941401 43.94358825683594 41.08229064941406 C34.70358825683593 41.08229064941406 25.46358825683592 41.08229064941406 15.943588256835938 41.08229064941406 C15.943588256835938 43.72229064941405 15.943588256835938 46.362290649414035 15.943588256835938 49.08229064941406 C26.833588256835924 49.08229064941406 37.72358825683591 49.08229064941406 48.94358825683594 49.08229064941406 C49.43858825683594 56.50729064941402 49.43858825683594 56.50729064941402 49.94358825683594 64.08229064941406 C48.94358825683594 65.08229064941406 48.94358825683594 65.08229064941406 46.849212646484375 65.20254516601563 C45.92765884399415 65.20032455444334 45.00610504150393 65.19810394287106 44.05662536621094 65.19581604003906 C43.01562179565428 65.19574050903316 41.97461822509763 65.19566497802737 40.902069091796875 65.19558715820313 C39.76979385375978 65.19042587280273 38.63751861572268 65.18526458740234 37.47093200683594 65.17994689941406 C36.31815261840819 65.17853195190423 35.165373229980446 65.17711700439452 33.9776611328125 65.1756591796875 C30.278777620599385 65.17004070169605 26.57995361674324 65.15748506527075 22.881088256835938 65.14479064941406 C20.38043808643124 65.1397780302558 17.879786971735086 65.1352147120408 15.379135131835938 65.13111877441406 C9.23393237538869 65.1200652691449 3.088764565621375 65.10330916845214 -3.0564117431640625 65.08229064941406 C-3.079538586993067 56.75500117446245 -3.0973285696045423 48.42772502198534 -3.1082239151000977 40.1004114151001 C-3.113451998539631 36.234089474303914 -3.1205482824396427 32.367789435417535 -3.1318511962890625 28.501480102539063 C-3.1426827416202627 24.77325664252521 -3.148689142742967 21.04505430482459 -3.1512889862060547 17.316816329956055 C-3.1531427533400915 15.89139409101631 -3.1567624502399667 14.465973062537046 -3.162141799926758 13.040559768676758 C-3.169355672499364 11.0506565718905 -3.169819826414937 9.060732309326909 -3.1699371337890625 7.0708160400390625 C-3.1721577453613463 5.936083526611355 -3.1743783569335733 4.801351013183648 -3.176666259765625 3.632232666015625 C-3.0110536103503023 0.12049219123548482 -3.0110536103503023 0.12049219123548482 0 0 Z " fill="#363333" transform="translate(445.05641174316406,696.9177093505859)"/>
<path d="M0 0 C2.9188914829164787 -0.16216063793979174 5.828792250229185 -0.2809120203294242 8.75 -0.375 C9.574999999999989 -0.4252734374999818 10.399999999999977 -0.4755468749999636 11.25 -0.52734375 C13.632928515673484 -0.5849952463469208 15.67876210842536 -0.5489432982990365 18 0 C21.018640315162656 3.3257833678977704 22.520969930082686 6.839020943610535 23.9375 11.0625 C26.83654382430916 19.41989977476635 29.992726065438376 27.66428473171004 33.4375 35.8125 C35.76972465536829 41.34046286984437 37.88308700031001 46.936510151991 39.945068359375 52.569580078125 C40.917509375995905 55.20840600468671 41.88615117176255 57.77911057910069 43.17578125 60.28125 C44 62 44 62 44 65 C37.73000000000002 65 31.45999999999998 65 25 65 C21 56.25 21 56.25 21 54 C13.409999999999968 54 5.819999999999993 54 -2 54 C-2.660000000000025 57.299999999999955 -3.319999999999993 60.60000000000002 -4 64 C-5 65 -5 65 -6.857666015625 65.113525390625 C-8.043804931640636 65.10567016601567 -8.043804931640636 65.10567016601567 -9.25390625 65.09765625 C-10.10791015625 65.09443359374995 -10.9619140625 65.09121093750002 -11.841796875 65.087890625 C-12.739628906250005 65.07951171875004 -13.637460937500009 65.07113281249997 -14.5625 65.0625 C-15.464199218750025 65.05798828125 -16.365898437499993 65.05347656250001 -17.294921875 65.048828125 C-19.53001313711792 65.03700224530621 -21.7649743663942 65.02052220174949 -24 65 C-23.399613198487998 60.27647492304391 -22.024331548725172 56.17271837840815 -20.1875 51.8125 C-19.638007141713388 50.47449794215902 -19.08983581978947 49.13595241227847 -18.54296875 47.796875 C-18.276616210937505 47.146542968750055 -18.01026367187501 46.496210937499995 -17.73583984375 45.826171875 C-16.41906205700508 42.558256199866605 -15.24351952846223 39.24173835418185 -14.0546875 35.92578125 C-3.9569377990430326 7.913875598086065 -3.9569377990430326 7.913875598086065 0 0 Z M9 24 C7.680000000000007 28.289999999999964 6.360000000000014 32.58000000000004 5 37 C7.970000000000027 37 10.939999999999998 37 14 37 C13.550052430226344 35.20620902183566 13.089758566397961 33.415010716126744 12.625 31.625 C12.369765625000014 30.62726562499995 12.114531250000027 29.629531250000014 11.8515625 28.6015625 C11.175956806316663 25.874589848895425 11.175956806316663 25.874589848895425 9 24 Z " fill="#393634" transform="translate(306,697)"/>
<path d="M0 0 C0.7140600585937591 0.0000805664062681899 1.4281201171875182 0.0001611328125363798 2.163818359375 0.000244140625 C4.312545598490033 -0.0019197337346668064 6.4607402794664495 -0.02000422635853738 8.609375 -0.0390625 C17.23854799057733 -0.07534944026338053 24.836247697951194 0.2214357817489372 32.720703125 4.060546875 C33.37941406250002 4.367343750000032 34.038125000000036 4.67414062499995 34.716796875 4.990234375 C36.731113981251156 6.527344186752657 36.91863775597699 7.73114903847852 37.283203125 10.185546875 C37.94320312499997 10.185546875 38.60320312500005 10.185546875 39.283203125 10.185546875 C42.676450891347486 16.406501113303648 43.12305850231701 22.168088611196026 42.283203125 29.185546875 C40.6428750193694 34.54747960738382 37.676244177150465 38.69108240169851 33.283203125 42.185546875 C27.07339799793101 45.030567726168215 22.0531102285687 45.57422135852994 15.283203125 45.373046875 C12.313203124999973 45.311171875000014 9.343203124999945 45.24929687500003 6.283203125 45.185546875 C6.283203125 51.78554687500002 6.283203125 58.385546875000045 6.283203125 65.185546875 C0.34320312499994543 65.185546875 -5.5967968749999955 65.185546875 -11.716796875 65.185546875 C-11.739350901327612 56.85825336983214 -11.757713698572275 48.530983439732495 -11.768609046936035 40.203667640686035 C-11.773837130375568 36.33734569988985 -11.780933414275523 32.47104566100347 -11.792236328125 28.604736328125 C-11.803067873456257 24.87651286811115 -11.809074274578961 21.148310530410527 -11.811674118041992 17.420072555541992 C-11.813527885176086 15.994650316602247 -11.817147582075904 14.569229288122983 -11.822526931762695 13.143815994262695 C-11.829740804335302 11.153912797476437 -11.830204958250874 9.163988534912846 -11.830322265625 7.174072265625 C-11.832542877197284 6.039339752197293 -11.834763488769568 4.904607238769586 -11.837051391601563 3.7354888916015625 C-11.558800165772027 -2.1647010718625097 -4.612087419181307 0.016486970964024295 0 0 Z M6.283203125 17.185546875 C6.283203125 21.145546875000036 6.283203125 25.10554687499996 6.283203125 29.185546875 C8.553452805643133 29.26652011327917 10.824523878649188 29.324723912311697 13.095703125 29.373046875 C14.992558593750005 29.425253906249964 14.992558593750005 29.425253906249964 16.927734375 29.478515625 C20.215524934706764 29.476079737558393 20.215524934706764 29.476079737558393 22.201171875 27.826171875 C23.803565528403396 25.396549729045432 23.838605722890293 24.031985189187594 23.283203125 21.185546875 C21.59386357553103 18.6090942198025 21.59386357553103 18.6090942198025 18.283203125 17.185546875 C14.219763790189518 16.85265132481402 10.373575825212583 17.005750272792852 6.283203125 17.185546875 Z " fill="#373432" transform="translate(606.716796875,696.814453125)"/>
<path d="M0 0 C0.7488647460937727 0.005236816406295475 1.4977294921875455 0.010473632812477263 2.269287109375 0.015869140625 C3.0781738281250455 0.019091796875045475 3.8870605468749773 0.022314453124977263 4.720458984375 0.025634765625 C5.570595703125036 0.03401367187495907 6.420732421874959 0.04239257812503183 7.296630859375 0.051025390625 C8.150634765625 0.05553710937499545 9.004638671875 0.060048828124990905 9.884521484375 0.064697265625 C12.001087493920068 0.07652165673982836 14.117617709797173 0.09445770459274172 16.234130859375 0.113525390625 C17.383977954176203 43.83523792885126 17.383977954176203 43.83523792885126 17.234130859375 65.113525390625 C10.964130859375018 65.113525390625 4.694130859375036 65.113525390625 -1.765869140625 65.113525390625 C-1.9188879946611905 56.786315689912726 -2.0676511165403326 48.45906380262886 -2.2088327407836914 40.131646156311035 C-2.2745545134152962 36.26528185471011 -2.342172906396172 32.398969772282726 -2.4140625 28.53271484375 C-2.483315498462048 24.804560362520874 -2.547669178745423 21.07635111035654 -2.6085643768310547 17.348051071166992 C-2.632719807532453 15.922600744335 -2.658668336959181 14.497179683212948 -2.686403274536133 13.071794509887695 C-2.7248206808679925 11.08196488528506 -2.756385456000885 9.092006466839734 -2.78759765625 7.10205078125 C-2.8075831604004406 5.967318267822293 -2.8275686645507676 4.832585754394586 -2.8481597900390625 3.6634674072265625 C-2.7356094812524816 0.17586871405808324 -2.7356094812524816 0.17586871405808324 0 0 Z " fill="#322F2F" transform="translate(657.765869140625,696.886474609375)"/>
<path d="M0 0 C2.49473216485228 1.978580682468987 4.68241161364665 4.07073512627403 6.8125 6.4375 C6.8125 7.097499999999968 6.8125 7.75750000000005 6.8125 8.4375 C5.7606250000000045 8.982773437499986 5.7606250000000045 8.982773437499986 4.6875 9.5390625 C-15.410005406117875 20.18855585378526 -23.40781556717286 34.691674845794296 -31.1875 55.4375 C-38.11749999999995 55.4375 -45.047500000000014 55.4375 -52.1875 55.4375 C-50.50555251111575 51.23263127778944 -49.266576077321815 49.04549463964008 -46.5625 45.625 C-43.27309163760276 41.17146345127344 -40.50566250734005 36.6711760895887 -38 31.75 C-37.654772949218795 31.078801269531255 -37.30954589843748 30.40760253906251 -36.953857421875 29.716064453125 C-35.23220039459795 26.193148246014516 -33.97757476992763 22.92503664408173 -33.2421875 19.06640625 C-32.37639016500975 14.656845372196926 -31.553277301675053 11.326694503511249 -29.1875 7.4375 C-24.191578209397107 4.229433285671348 -18.298586721389597 3.040875575947325 -12.539794921875 1.909423828125 C-10.236476893957047 1.4473258781545155 -7.987693499217244 0.8762431984723662 -5.71875 0.26953125 C-2.1875 -0.5625 -2.1875 -0.5625 0 0 Z " fill="#D03831" transform="translate(631.1875,595.5625)"/>
</svg>
