<svg xmlns="http://www.w3.org/2000/svg" width="2048" height="2048" viewBox="0 0 2048 2048" version="1.1">
	<path d="M 815.500 589.960 C 813.850 590.389, 808.675 591.298, 804 591.982 C 765.517 597.605, 735.791 614.231, 712.782 643 C 707.517 649.582, 676.989 694.917, 666.655 711.500 C 657.968 725.439, 653.063 730.346, 647 731.163 L 644.500 731.500 645 723 C 645.275 718.325, 645.500 707.895, 645.500 699.822 C 645.500 683.519, 644.998 682.006, 638.010 677.250 C 634.736 675.022, 634.363 675, 599.602 675.006 C 578.456 675.009, 562.910 675.426, 560.500 676.055 C 553.912 677.775, 548.164 681.098, 544.038 685.575 C 537.831 692.308, 535.718 697.343, 535.209 706.612 C 534.811 713.868, 535.056 715.375, 537.537 720.903 C 540.724 728.004, 548.060 735.350, 555.668 739.057 C 560.190 741.261, 561.977 741.447, 583.500 741.956 L 606.500 742.500 602.500 744.347 C 585.359 752.263, 576.566 758.331, 563.957 770.949 C 548.571 786.347, 538.384 802.895, 533.970 819.658 C 531.902 827.511, 531.899 827.846, 532.822 947.016 C 533.844 1079.020, 533.360 1070.253, 540.412 1084.500 C 544.603 1092.967, 550.724 1100.299, 560.289 1108.310 C 568.284 1115.006, 574.850 1118.268, 585.980 1121.074 C 593.304 1122.920, 604.762 1122.970, 1024.669 1122.985 C 1417.183 1122.999, 1456.406 1122.856, 1462.169 1121.395 C 1481.265 1116.554, 1498.891 1102.197, 1507.364 1084.581 C 1516.123 1066.370, 1515.961 1069.139, 1515.982 936.572 L 1516 821.645 1512.870 813.148 C 1507.787 799.347, 1500.919 787.883, 1490.852 776.392 C 1479.095 762.974, 1466.120 753.803, 1445.500 744.336 L 1441.500 742.500 1465.500 742 L 1489.500 741.500 1494.855 738.534 C 1504.231 733.341, 1510.963 724.132, 1512.814 713.968 C 1514.843 702.825, 1511.070 692.007, 1502.386 684.070 C 1492.484 675.020, 1491.672 674.887, 1448.122 675.216 C 1411.030 675.496, 1410.456 675.531, 1407.373 677.730 C 1401.556 681.880, 1401.133 684.146, 1402.006 706.500 C 1402.435 717.500, 1403.112 727.513, 1403.510 728.750 C 1404.173 730.812, 1403.920 731, 1400.485 731 C 1394.603 731, 1394.014 730.252, 1366.416 687.779 C 1361.512 680.233, 1357.050 673.269, 1356.500 672.303 C 1349.474 659.968, 1335.057 641.184, 1324.555 630.686 C 1311.388 617.521, 1296.473 607.756, 1278.755 600.699 C 1267.777 596.326, 1262.088 595.042, 1231.385 590.004 C 1224.073 588.804, 820.113 588.761, 815.500 589.960 M 1010 612.020 C 902.475 612.325, 813.600 612.871, 812.500 613.235 C 811.400 613.598, 805.885 614.622, 800.245 615.510 C 778.624 618.915, 757.842 628.815, 742.618 642.963 C 735.036 650.010, 727.214 660.084, 715.805 677.500 C 710.039 686.300, 700.236 701.274, 694.020 710.775 C 687.803 720.277, 682.945 728.279, 683.225 728.558 C 683.706 729.039, 1367 729.753, 1367 729.272 C 1367 729.147, 1364.356 725.097, 1361.124 720.272 C 1357.892 715.447, 1348.175 700.725, 1339.532 687.555 C 1330.889 674.386, 1321.803 660.993, 1319.341 657.793 C 1303.641 637.390, 1280.617 622.473, 1256.273 616.933 C 1244.654 614.288, 1215.893 610.833, 1209 611.253 C 1207.075 611.370, 1117.525 611.716, 1010 612.020 M 564.212 698.368 C 559.749 700.727, 558 703.344, 558 707.659 C 558 711.008, 558.650 712.696, 560.919 715.234 L 563.837 718.500 592.289 718.639 C 607.938 718.715, 621.202 718.490, 621.764 718.139 C 622.893 717.434, 624.105 702.116, 623.281 698.966 C 622.777 697.039, 621.948 696.989, 594.343 697.223 C 578.712 697.355, 565.153 697.871, 564.212 698.368 M 1424.429 698.325 C 1424.149 699.054, 1424.051 703.891, 1424.210 709.075 L 1424.500 718.500 1452.500 718.798 C 1469.484 718.979, 1481.884 718.696, 1484.017 718.078 C 1492.596 715.593, 1493.262 702.772, 1485.033 698.517 C 1480.965 696.413, 1425.230 696.237, 1424.429 698.325 M 998.586 751.747 C 998.450 751.883, 933.687 752.005, 854.669 752.017 C 775.651 752.029, 711 752.239, 711 752.483 C 711 752.727, 720.337 762.284, 731.750 773.722 C 743.163 785.159, 759.238 802.388, 767.473 812.009 C 793.093 841.936, 803.645 851.008, 819.429 856.677 C 825.946 859.018, 833.281 859.975, 853 861.058 C 872.342 862.121, 1149.741 862.464, 1180.500 861.463 C 1235.257 859.681, 1241.777 856.309, 1284.850 807.496 C 1291.643 799.798, 1306.238 784.395, 1317.284 773.267 C 1328.329 762.139, 1337.172 752.844, 1336.933 752.613 C 1336.483 752.175, 999.021 751.312, 998.586 751.747 M 667 754.081 C 630.454 757.585, 617.522 760.797, 600.723 770.545 C 580.856 782.073, 569.416 794.415, 559.624 814.881 L 555.500 823.500 555.711 875.500 C 555.983 942.845, 556.998 956.091, 564.173 986 C 571.304 1015.730, 585.391 1042.705, 601.917 1058.275 C 609.870 1065.769, 620.262 1073.643, 628.750 1078.608 C 632.188 1080.619, 635 1082.654, 635 1083.132 C 635 1084.301, 612.966 1084.229, 605.681 1083.035 C 589.270 1080.348, 572.936 1065.834, 561.443 1043.727 C 558.935 1038.902, 556.453 1035.220, 555.929 1035.544 C 554.717 1036.293, 555.712 1059.858, 557.215 1066 C 560.192 1078.164, 570.660 1090.607, 582.695 1096.288 L 589.500 1099.500 1022.500 1099.500 C 1399.850 1099.500, 1456.078 1099.312, 1460 1098.037 C 1469.921 1094.811, 1479.325 1087.829, 1484.926 1079.531 C 1490.655 1071.045, 1492.249 1065.005, 1492.899 1049.323 C 1493.229 1041.339, 1493.238 1034.645, 1492.917 1034.448 C 1492.597 1034.250, 1490.843 1036.881, 1489.019 1040.295 C 1475.815 1065.004, 1459.612 1079.757, 1442.114 1083.001 C 1435.351 1084.255, 1411.678 1084.330, 1412.441 1083.095 C 1412.748 1082.598, 1415.588 1080.734, 1418.750 1078.954 C 1456.051 1057.955, 1479.482 1019.655, 1489.079 964 C 1491.780 948.333, 1492.810 927.660, 1493.587 873.500 L 1494.247 827.500 1491.660 820.729 C 1485.589 804.835, 1481.314 798.381, 1469.254 786.905 C 1446.983 765.711, 1428.787 758.703, 1384 754.074 C 1368.697 752.492, 1366.258 752.612, 1365.505 754.985 C 1365.158 756.077, 1360.069 761.364, 1354.194 766.735 C 1334.841 784.430, 1311.117 809.290, 1298.097 825.519 C 1289.191 836.618, 1270.875 855.118, 1262.458 861.513 C 1250.648 870.487, 1233.483 878.083, 1218.500 880.967 C 1205.794 883.412, 1178 883.991, 1043 884.623 C 843.935 885.554, 825.064 884.524, 800.162 871.373 C 784.862 863.293, 777.607 856.385, 741.537 815.553 C 729.605 802.047, 714.591 786.159, 708.172 780.248 C 701.752 774.337, 692.747 765.788, 688.160 761.250 C 682.508 755.659, 679.125 753.043, 677.660 753.133 C 676.472 753.206, 671.675 753.632, 667 754.081 M 789.378 756.545 C 788.256 758.258, 787.691 761.313, 787.649 765.885 C 787.594 771.884, 787.962 773.266, 790.793 777.678 C 794.249 783.063, 794.616 785.667, 792.889 792.527 C 790.423 802.319, 786 800.618, 786 789.878 C 786 781.649, 784.910 781.143, 779.673 786.940 C 775.941 791.071, 774.323 796.218, 775.517 800.163 C 776.535 803.525, 780.942 807.928, 785 809.639 C 789.306 811.454, 798.824 811.700, 801.860 810.075 C 807.238 807.196, 809.747 797.131, 806.789 790.297 C 806.123 788.759, 802.594 784.311, 798.946 780.412 C 791.564 772.523, 790.626 769.868, 791.676 759.822 C 792.011 756.620, 792.006 754, 791.666 754 C 791.325 754, 790.296 755.145, 789.378 756.545 M 1170.797 759.750 C 1170.163 761.263, 1169.612 765.907, 1169.572 770.071 C 1169.505 777.167, 1169.742 778.033, 1173.356 783.893 C 1177.025 789.842, 1177.178 790.421, 1176.503 795.822 C 1175.638 802.747, 1173.575 807, 1171.081 807 C 1168.577 807, 1168 805.113, 1168 796.918 C 1168 789.810, 1167.524 789.114, 1163.966 791.018 C 1161.759 792.199, 1157.531 799.233, 1156.590 803.287 C 1154.093 814.050, 1166.362 823.553, 1179.569 821.086 C 1196.248 817.970, 1197.275 799.986, 1181.549 786.409 C 1174.471 780.299, 1173.448 777.665, 1173.720 766.250 C 1173.946 756.752, 1172.967 754.575, 1170.797 759.750 M 916.523 760.250 C 912.903 771.177, 913.183 775.904, 918.002 785.264 C 920.453 790.024, 922 794.399, 922 796.571 C 922 802.005, 920.014 808.677, 917.801 810.680 C 915.871 812.426, 915.748 812.407, 913.844 810.055 C 912.241 808.077, 911.920 806.321, 912.107 800.564 C 912.397 791.656, 910.910 791.023, 905.129 797.591 C 898.054 805.628, 897.357 813.921, 903.198 820.572 C 907.911 825.940, 911.432 827.380, 920 827.444 C 926.270 827.491, 928.026 827.125, 930.710 825.210 C 937.697 820.227, 940.318 812.607, 938.002 804.008 C 937.068 800.540, 934.933 797.624, 928.490 791.018 C 922.043 784.408, 919.917 781.505, 919 778.055 C 917.924 774.009, 918.230 765.562, 919.627 760.750 C 920.216 758.719, 917.192 758.232, 916.523 760.250 M 1251.161 763.547 C 1249.642 766.879, 1249.672 777.148, 1251.210 780.703 C 1251.876 782.241, 1253.226 784.573, 1254.210 785.885 C 1257.568 790.359, 1256.025 802, 1252.075 802 C 1250.372 802, 1250.058 801.208, 1249.800 796.260 C 1249.573 791.914, 1249.106 790.444, 1247.878 790.211 C 1245.721 789.801, 1242.093 796.042, 1241.354 801.432 C 1240.878 804.906, 1241.187 806.104, 1243.139 808.368 C 1246.268 811.995, 1251.967 813.279, 1258.816 811.901 C 1263.148 811.029, 1264.490 810.245, 1266.062 807.665 C 1270.044 801.135, 1268.342 795.109, 1260.087 786.512 C 1253.627 779.784, 1252.313 775.661, 1253.582 766.095 C 1254.316 760.562, 1253.103 759.285, 1251.161 763.547 M 870.871 766.250 C 870.117 768.038, 869.500 772.712, 869.500 776.638 C 869.500 783.147, 869.797 784.189, 872.867 788.464 C 875.282 791.828, 876.218 794.190, 876.177 796.826 C 876.104 801.586, 873.397 808, 871.462 808 C 869.262 808, 867.758 803.137, 868.475 798.339 C 869.254 793.117, 868.046 792.299, 864.706 795.786 C 861.549 799.082, 859 804.910, 859 808.833 C 859 815.033, 865.925 820, 874.567 820 C 883.227 820, 889 815.270, 889 808.175 C 889 801.349, 887.664 798.652, 880.592 791.203 L 873.500 783.731 873.500 773.366 C 873.500 767.664, 873.217 763, 872.871 763 C 872.526 763, 871.626 764.462, 870.871 766.250 M 632 772.590 C 628.425 773.353, 621.247 776.073, 616.048 778.633 C 607.891 782.650, 605.215 784.672, 596.517 793.394 C 587.874 802.059, 585.766 804.854, 581.730 813 C 575.380 825.813, 573.588 834.836, 574.280 850.500 C 574.877 863.999, 576.320 869.724, 582.154 881.730 C 588.662 895.126, 601.650 907.741, 616.846 915.427 C 630.715 922.442, 650.760 924.315, 667 920.115 C 702.427 910.952, 724.313 882.664, 724.342 846 C 724.354 831.119, 721.780 821.672, 714.136 808.551 C 707.856 797.770, 691.464 783.059, 679.628 777.582 C 666.277 771.404, 647.004 769.384, 632 772.590 M 1385 772.125 C 1372.077 774.743, 1361.939 779.683, 1351.989 788.212 C 1332.011 805.339, 1323.617 822.779, 1323.695 847 C 1323.758 866.374, 1330.378 882.857, 1343.843 897.172 C 1354.524 908.525, 1363.803 914.577, 1377.571 919.169 C 1383.529 921.156, 1386.532 921.481, 1399 921.490 C 1411.704 921.499, 1414.429 921.196, 1421 919.047 C 1467.029 903.994, 1487.801 854.025, 1465.695 811.530 C 1459.460 799.545, 1446.560 786.897, 1432.536 779.020 C 1420.679 772.360, 1399.214 769.247, 1385 772.125 M 1128.871 777.250 C 1128.059 779.175, 1127.509 784.015, 1127.522 789.123 C 1127.542 797.247, 1127.745 798.059, 1131.013 803.123 C 1134.040 807.815, 1134.469 809.264, 1134.384 814.500 C 1134.116 830.884, 1125.054 832.634, 1125.015 816.309 C 1125.007 812.904, 1124.577 809.857, 1124.060 809.537 C 1122.543 808.599, 1116.311 814.725, 1114.068 819.360 C 1112.931 821.709, 1112 825.079, 1112 826.848 C 1112 836.686, 1121.801 845, 1133.398 845 C 1146.993 845, 1154.991 829.708, 1148.266 816.575 C 1147.442 814.967, 1143.736 810.447, 1140.029 806.531 C 1131.639 797.667, 1130.518 794.586, 1131.405 782.837 C 1132.106 773.543, 1131.241 771.634, 1128.871 777.250 M 1214.421 777.480 C 1212.176 780.906, 1210.782 787.730, 1211.582 791.373 C 1211.949 793.043, 1213.774 796.628, 1215.639 799.338 C 1219.963 805.624, 1220.599 808.305, 1219.103 813.941 C 1216.824 822.527, 1212.634 823.409, 1211.455 815.549 C 1211.078 813.037, 1210.987 809.850, 1211.251 808.467 C 1211.957 804.776, 1210.232 804.403, 1206.959 807.539 C 1203.622 810.736, 1200 817.920, 1200 821.341 C 1200 824.819, 1203.998 830.152, 1208.530 832.718 C 1219.011 838.655, 1232.993 831.474, 1232.998 820.151 C 1233.001 815.342, 1230.793 811.322, 1222.969 801.892 C 1219.171 797.314, 1215.815 792.428, 1215.512 791.034 C 1215 788.686, 1215.896 782.600, 1217.541 777.250 C 1218.482 774.191, 1216.480 774.338, 1214.421 777.480 M 828.175 784.250 C 826.968 787.688, 825.984 791.202, 825.990 792.060 C 825.995 792.918, 827.603 796.875, 829.563 800.853 C 833.612 809.071, 834.140 814.261, 831.401 818.899 C 829.523 822.077, 827.638 822.842, 826.444 820.909 C 826.073 820.309, 825.640 816.902, 825.480 813.338 C 825.321 809.774, 824.879 806.552, 824.498 806.179 C 823.750 805.446, 818.961 810.637, 815.897 815.500 C 808.326 827.518, 823.258 840.282, 837.993 834.386 C 843.648 832.123, 846.001 828.437, 845.996 821.846 C 845.992 815.690, 844.619 813.027, 836.542 803.506 C 830.609 796.512, 829.092 792.045, 830.893 786.876 C 832.188 783.162, 832.358 778, 831.185 778 C 830.737 778, 829.382 780.813, 828.175 784.250 M 638.500 794.395 C 613.669 799.358, 595.977 820.811, 596.012 845.915 C 596.034 861.665, 600.542 872.687, 611.423 883.592 C 624.618 896.816, 642.206 902.375, 660.109 898.979 C 670.121 897.081, 683.315 889.520, 689.500 882.139 C 693.672 877.159, 698.991 867.542, 700.568 862.127 C 702.575 855.233, 702.803 842.395, 701.049 835 C 696.198 814.547, 678.197 797.475, 657.918 794.097 C 649.961 792.771, 646.349 792.826, 638.500 794.395 M 1388 794.907 C 1362.821 800.726, 1345.972 821.614, 1346.012 846.960 C 1346.047 869.174, 1359.015 887.767, 1380.218 896.002 C 1386.925 898.607, 1389.216 898.998, 1397.718 898.988 C 1414.742 898.967, 1425.451 894.717, 1436.550 883.577 C 1446.941 873.145, 1451.964 861.506, 1451.988 847.799 C 1452.029 824.804, 1438.500 804.892, 1417.500 797.041 C 1410.958 794.595, 1394.502 793.404, 1388 794.907 M 797.481 926.394 C 793.260 928.233, 788.223 934.293, 787.438 938.479 C 786.321 944.434, 787.800 949.120, 792.084 953.194 C 798.492 959.291, 807.046 959.533, 813.572 953.802 C 818.075 949.849, 820.004 946.087, 819.984 941.300 C 819.936 930.346, 807.427 922.060, 797.481 926.394 M 604.994 930.870 C 597.558 933.323, 588.207 941.829, 584.608 949.413 C 579.678 959.802, 579.147 974.543, 583.111 990.981 C 594.606 1038.649, 624.173 1068.183, 674.500 1082.266 C 694.830 1087.956, 705.828 1089.412, 740.310 1090.983 C 758.240 1091.800, 762.687 1091.733, 765.310 1090.605 C 770.217 1088.494, 775.729 1082.114, 777.063 1077 C 778.499 1071.495, 777.596 1067.811, 769.711 1047 C 756.803 1012.929, 751.729 998.302, 752.272 996.724 C 752.815 995.147, 758.536 1007.736, 766.494 1028.020 C 776.356 1053.154, 786.184 1072.942, 791.424 1078.212 C 796.709 1083.527, 806.260 1087.969, 814.758 1089.065 C 818.466 1089.543, 829.399 1089.949, 839.054 1089.967 C 855.929 1089.999, 856.807 1089.901, 861.759 1087.433 C 864.593 1086.021, 868.306 1083.208, 870.011 1081.183 C 871.716 1079.157, 873.952 1076.487, 874.980 1075.250 L 876.849 1073 1024.477 1073 L 1172.106 1073 1177.721 1079.066 C 1187.334 1089.449, 1187.520 1089.500, 1215.577 1089.500 L 1239.655 1089.500 1245.228 1086.681 C 1256.767 1080.845, 1261.547 1074.972, 1269.791 1056.500 C 1272.491 1050.450, 1275.644 1043.439, 1276.798 1040.919 C 1277.952 1038.400, 1279.854 1033.908, 1281.025 1030.937 C 1282.196 1027.966, 1284.245 1023.151, 1285.577 1020.238 C 1286.910 1017.324, 1288 1014.742, 1288 1014.500 C 1288 1014.258, 1289.075 1011.683, 1290.388 1008.780 C 1291.701 1005.876, 1293.738 1001.362, 1294.913 998.750 C 1296.088 996.138, 1297.457 994, 1297.955 994 C 1298.939 994, 1298.242 996.861, 1295.519 1004 C 1284.761 1032.209, 1274.945 1058.917, 1272.444 1066.785 C 1270.544 1072.764, 1270.321 1074.647, 1271.202 1077.285 C 1272.753 1081.927, 1276.399 1086.465, 1280.727 1089.140 C 1284.262 1091.325, 1285.367 1091.456, 1298.498 1091.239 C 1331.868 1090.689, 1362.777 1086.316, 1387 1078.716 C 1412.390 1070.751, 1440.159 1047.541, 1453.809 1022.874 C 1467.159 998.749, 1472.226 966.604, 1465.187 950.690 C 1462.475 944.560, 1454.742 936.431, 1448.520 933.169 C 1441.127 929.295, 1430.986 929.567, 1405 934.338 C 1393.725 936.409, 1381.800 938.545, 1378.500 939.087 C 1365.479 941.222, 1361.230 941.897, 1354.500 942.898 C 1341.557 944.822, 1302.065 952.010, 1283.491 955.823 C 1272.769 958.023, 1270.230 959.234, 1269.400 962.542 C 1268.708 965.301, 1270.278 967.792, 1273.465 968.987 C 1278.370 970.825, 1232.958 971.147, 1012.800 970.833 C 834.308 970.579, 778.820 970.220, 777.914 969.314 C 777 968.400, 777.103 967.754, 778.364 966.493 C 780.516 964.341, 780.453 960.311, 778.250 959.140 C 776.373 958.142, 766.944 955.771, 758 954.049 C 754.975 953.466, 749.125 952.342, 745 951.551 C 740.875 950.760, 716.800 946.728, 691.500 942.592 C 666.200 938.455, 640.325 934.108, 634 932.932 C 620.999 930.515, 608.714 929.642, 604.994 930.870 M 608.722 954.004 C 603.478 958.129, 599.841 969.893, 603.750 970.087 C 609.973 970.394, 709.553 969.781, 709.901 969.432 C 710.938 968.395, 708.531 967.794, 697.857 966.421 C 682.721 964.474, 634.907 956.569, 623 954.045 C 611.315 951.568, 611.817 951.570, 608.722 954.004 M 1425 953.964 C 1413.356 955.902, 1389.384 960.017, 1372.500 962.976 C 1366.450 964.036, 1356.565 965.623, 1350.533 966.502 C 1344.501 967.381, 1339.386 968.281, 1339.165 968.502 C 1338.944 968.722, 1339.830 969.125, 1341.132 969.397 C 1344.592 970.119, 1443.755 971.031, 1445.512 970.357 C 1450.111 968.592, 1441.725 951.560, 1436.527 952.108 C 1435.962 952.168, 1430.775 953.003, 1425 953.964 M 607.588 993.858 C 606.131 996.215, 613.785 1012.179, 621.180 1022.207 C 637.194 1043.924, 665.836 1059.277, 699 1063.920 C 713.732 1065.983, 723.706 1066.930, 737.750 1067.601 C 750.811 1068.224, 752 1068.138, 752 1066.565 C 752 1065.621, 750.237 1060.271, 748.082 1054.675 C 745.927 1049.079, 742.358 1039.550, 740.151 1033.500 C 737.944 1027.450, 734.478 1018, 732.450 1012.500 C 730.421 1007, 728.123 1000.362, 727.342 997.750 L 725.923 993 667.020 993 C 634.624 993, 607.880 993.386, 607.588 993.858 M 777 993.998 C 777 994.572, 779.976 1002.344, 783.614 1011.271 C 787.251 1020.197, 791.784 1031.325, 793.687 1036 C 802.336 1057.253, 807.927 1065.145, 815.317 1066.532 C 819.858 1067.384, 851.624 1066.714, 852.590 1065.745 C 853.004 1065.330, 851.931 1063.305, 850.206 1061.245 C 839.572 1048.547, 826.006 1024.968, 817.846 1005 L 813.146 993.500 795.073 993.227 C 783.018 993.046, 777 993.302, 777 993.998 M 837.673 993.719 C 837.012 994.789, 844.049 1010, 845.205 1010 C 845.687 1010, 845.950 1006.288, 845.790 1001.750 L 845.500 993.500 841.843 993.195 C 839.831 993.028, 837.955 993.263, 837.673 993.719 M 851.710 993.623 C 850.359 994.974, 850.914 1020.863, 852.368 1024.282 C 853.728 1027.480, 861.563 1037, 862.835 1037 C 863.201 1036.999, 863.500 1027.212, 863.500 1015.250 L 863.500 993.500 857.960 993.206 C 854.913 993.045, 852.101 993.232, 851.710 993.623 M 869.667 993.667 C 869.300 994.033, 869.007 1005.396, 869.015 1018.917 C 869.032 1047.417, 869.239 1048.332, 875.773 1048.807 L 880 1049.115 880.139 1043.807 C 880.522 1029.155, 880.560 997.226, 880.197 995.250 C 879.837 993.293, 879.169 993, 875.058 993 C 872.460 993, 870.033 993.300, 869.667 993.667 M 886.473 994.210 C 886.194 994.937, 886.086 1007.449, 886.233 1022.016 L 886.500 1048.500 891.766 1048.803 L 897.032 1049.106 896.766 1021.303 L 896.500 993.500 891.740 993.195 C 888.488 992.986, 886.819 993.308, 886.473 994.210 M 902.625 994.534 C 901.022 998.712, 902.645 1048.673, 904.404 1049.286 C 905.007 1049.496, 907.420 1049.470, 909.766 1049.228 L 914.031 1048.787 913.766 1021.143 L 913.500 993.500 908.375 993.202 C 904.376 992.970, 903.113 993.262, 902.625 994.534 M 919.712 993.622 C 919.320 994.013, 919 1006.353, 919 1021.044 C 919 1050.934, 918.958 1050.755, 925.678 1049.665 C 927.691 1049.338, 929.709 1048.492, 930.163 1047.785 C 930.617 1047.078, 930.878 1034.575, 930.744 1020 L 930.500 993.500 925.462 993.205 C 922.690 993.043, 920.103 993.230, 919.712 993.622 M 936.667 993.667 C 936.300 994.033, 936 1006.581, 936 1021.550 C 936 1048.243, 936.040 1048.777, 938.073 1049.309 C 939.212 1049.607, 941.636 1049.609, 943.458 1049.313 L 946.771 1048.776 947.489 1035.373 C 947.883 1028.002, 947.881 1015.452, 947.482 1007.485 L 946.758 993 942.046 993 C 939.454 993, 937.033 993.300, 936.667 993.667 M 953.713 993.621 C 953.321 994.013, 953 1006.625, 953 1021.648 L 953 1048.962 955.379 1049.559 C 956.688 1049.887, 959.050 1050.009, 960.629 1049.828 L 963.500 1049.500 963.500 1021.500 L 963.500 993.500 958.963 993.204 C 956.467 993.041, 954.105 993.229, 953.713 993.621 M 970.452 994.265 C 970.185 994.961, 970.086 1007.673, 970.233 1022.515 L 970.500 1049.500 974.901 1049.815 C 977.745 1050.018, 979.597 1049.665, 980.136 1048.815 C 981.084 1047.319, 981.323 997.005, 980.393 994.582 C 979.635 992.605, 971.192 992.336, 970.452 994.265 M 986.577 994.660 C 985.467 997.552, 986.030 1047.331, 987.188 1048.726 C 988.298 1050.064, 993.688 1050.441, 996.467 1049.374 C 997.910 1048.821, 998.067 1046.495, 997.835 1029.124 C 997.691 1018.331, 997.409 1005.788, 997.210 1001.250 L 996.848 993 992.031 993 C 988.465 993, 987.049 993.431, 986.577 994.660 M 1003.713 993.621 C 1003.321 994.013, 1003 1006.353, 1003 1021.044 C 1003 1050.792, 1002.903 1050.373, 1009.680 1049.815 L 1013.500 1049.500 1013.500 1021.500 L 1013.500 993.500 1008.963 993.204 C 1006.467 993.041, 1004.105 993.229, 1003.713 993.621 M 1020.466 993.867 C 1020.210 994.123, 1020 1006.633, 1020 1021.667 L 1020 1049 1025.516 1049 L 1031.032 1049 1030.766 1021.750 L 1030.500 994.500 1025.716 993.950 C 1023.085 993.648, 1020.723 993.610, 1020.466 993.867 M 1090.500 993.953 L 1086.500 994.500 1086.234 1021.800 L 1085.968 1049.101 1091.418 1048.800 L 1096.868 1048.500 1097.274 1021.700 C 1097.730 991.674, 1098.035 992.923, 1090.500 993.953 M 1103.667 993.667 C 1103.300 994.033, 1103 1006.633, 1103 1021.667 L 1103 1049 1108.500 1049 L 1114 1049 1114 1021 L 1114 993 1109.167 993 C 1106.508 993, 1104.033 993.300, 1103.667 993.667 M 1120.713 993.621 C 1120.321 994.013, 1120 1006.657, 1120 1021.719 L 1120 1049.105 1125.250 1048.802 L 1130.500 1048.500 1130.500 1021 L 1130.500 993.500 1125.963 993.204 C 1123.467 993.041, 1121.105 993.229, 1120.713 993.621 M 1136.377 995.633 C 1135.308 999.894, 1136.757 1048.232, 1137.977 1048.986 C 1138.552 1049.341, 1140.929 1049.377, 1143.261 1049.066 L 1147.500 1048.500 1147.500 1021 L 1147.500 993.500 1142.282 993.199 C 1137.328 992.913, 1137.029 993.036, 1136.377 995.633 M 1154.245 994.155 C 1153.314 995.086, 1153 1002.153, 1153 1022.200 L 1153 1049 1158.389 1049 L 1163.777 1049 1164.476 1026.750 C 1164.861 1014.513, 1165.023 1002.025, 1164.838 999 L 1164.500 993.500 1159.995 993.205 C 1157.356 993.033, 1154.974 993.426, 1154.245 994.155 M 1169.788 1015.448 C 1169.672 1027.851, 1169.560 1040.362, 1169.538 1043.250 L 1169.500 1048.500 1174.718 1048.801 C 1179.453 1049.074, 1179.988 1048.889, 1180.499 1046.801 C 1180.809 1045.536, 1180.936 1033.025, 1180.781 1019 L 1180.500 993.500 1175.250 993.198 L 1170 992.895 1169.788 1015.448 M 1187.504 994.250 C 1186.554 996.994, 1186.525 1036.994, 1187.474 1036.677 C 1188.009 1036.498, 1190.545 1033.685, 1193.109 1030.425 L 1197.770 1024.500 1198.503 1013.280 C 1198.906 1007.109, 1198.930 1000.021, 1198.557 997.530 L 1197.877 993 1192.907 993 C 1189.829 993, 1187.772 993.476, 1187.504 994.250 M 1204.667 993.667 C 1203.663 994.670, 1203.865 1007.799, 1204.894 1008.435 C 1206.227 1009.258, 1212.464 996.651, 1211.704 994.671 C 1211.067 993.011, 1206.040 992.294, 1204.667 993.667 M 1233.513 996.622 C 1232.681 998.614, 1232 1000.645, 1232 1001.136 C 1232 1001.626, 1231.603 1002.809, 1231.119 1003.764 C 1230.634 1004.719, 1227.837 1010.900, 1224.903 1017.500 C 1221.970 1024.100, 1218.422 1031.525, 1217.019 1034 C 1215.616 1036.475, 1213.575 1040.208, 1212.484 1042.295 C 1211.393 1044.382, 1207.476 1050.201, 1203.779 1055.227 C 1198.641 1062.213, 1197.315 1064.675, 1198.151 1065.682 C 1199.504 1067.313, 1229.495 1067.546, 1235.168 1065.970 C 1241.427 1064.231, 1245.896 1057.533, 1255.494 1035.500 C 1263.462 1017.207, 1268.979 1003.930, 1269.539 1001.702 C 1269.914 1000.206, 1270.622 998.734, 1271.111 998.432 C 1271.600 998.129, 1272 996.784, 1272 995.441 L 1272 993 1253.513 993 L 1235.027 993 1233.513 996.622 M 1323.297 994.250 C 1322.775 994.938, 1321.625 997.750, 1320.740 1000.500 C 1318.145 1008.565, 1307.024 1039.057, 1305.057 1043.500 C 1300.005 1054.915, 1294.814 1068.147, 1295.226 1068.559 C 1295.757 1069.090, 1314.817 1067.831, 1335 1065.933 C 1351.785 1064.354, 1372.921 1059.858, 1381.500 1056.042 C 1407.284 1044.574, 1418.409 1036.096, 1429.864 1019.187 C 1433.774 1013.415, 1442 997.226, 1442 995.302 C 1442 994.723, 1440.594 993.969, 1438.875 993.625 C 1437.156 993.281, 1410.661 993, 1379.997 993 C 1336.568 993, 1324.035 993.276, 1323.297 994.250 M 1036.471 995.214 C 1036.193 995.939, 1036.086 1008.225, 1036.233 1022.516 L 1036.500 1048.500 1042.266 1048.800 L 1048.032 1049.101 1047.766 1021.800 L 1047.500 994.500 1042.239 994.197 C 1038.578 993.987, 1036.824 994.296, 1036.471 995.214 M 1053.451 995.266 C 1053.184 995.963, 1053.086 1008.225, 1053.233 1022.516 L 1053.500 1048.500 1058.750 1048.802 L 1064 1049.105 1064 1021.552 L 1064 994 1058.969 994 C 1055.831 994, 1053.754 994.477, 1053.451 995.266 M 1070 1021.500 L 1070 1049.105 1075.250 1048.802 L 1080.500 1048.500 1080.442 1021.500 L 1080.384 994.500 1075.192 994.198 L 1070 993.895 1070 1021.500 M 1199 1156.457 C 1158.136 1163.923, 1132.652 1192.365, 1125.041 1239 C 1121.892 1258.296, 1121.899 1291.785, 1125.056 1307.500 C 1125.608 1310.250, 1126.553 1314.975, 1127.155 1318 C 1128.800 1326.264, 1131.702 1334.497, 1136.496 1344.500 C 1140.945 1353.783, 1150.806 1367.332, 1155.215 1370.221 C 1156.592 1371.124, 1158.345 1372.477, 1159.110 1373.229 C 1163.695 1377.735, 1178.436 1385.551, 1186.500 1387.750 C 1196.395 1390.450, 1198.891 1391, 1201.244 1391 C 1204.442 1391, 1205.318 1392.228, 1206.948 1399 C 1209.206 1408.382, 1216.930 1424.811, 1223.036 1433.219 C 1227.662 1439.590, 1238.733 1449.831, 1243.734 1452.365 C 1255.970 1458.566, 1258.155 1458.999, 1277.191 1458.999 C 1287.907 1459, 1295.126 1458.606, 1295.500 1458 C 1295.840 1457.450, 1297.190 1457, 1298.500 1457 C 1299.810 1457, 1301.160 1456.550, 1301.500 1456 C 1301.840 1455.450, 1302.998 1455, 1304.073 1455 C 1305.148 1455, 1306.809 1454.601, 1307.764 1454.114 C 1308.719 1453.627, 1311.896 1452.184, 1314.825 1450.908 C 1317.754 1449.632, 1320.566 1447.810, 1321.075 1446.860 C 1322.482 1444.231, 1322.249 1421.649, 1320.800 1420.200 C 1320.103 1419.503, 1316.761 1419, 1312.826 1419 C 1306.092 1419, 1292.688 1416.160, 1286 1413.316 C 1272.587 1407.612, 1265.229 1402.867, 1255.910 1393.914 C 1251.388 1389.569, 1251.541 1388.656, 1257 1387.413 C 1258.375 1387.100, 1260.400 1386.475, 1261.500 1386.023 C 1262.600 1385.571, 1265.075 1384.623, 1267 1383.915 C 1271.899 1382.113, 1282.045 1375.898, 1287.417 1371.408 C 1297.995 1362.565, 1308.372 1346.078, 1313.478 1330 C 1317.440 1317.522, 1317.763 1316.215, 1318.914 1308 C 1319.492 1303.875, 1320.423 1297.263, 1320.982 1293.307 C 1322.423 1283.127, 1322.210 1261.670, 1320.524 1247 C 1318.529 1229.642, 1315.711 1219.354, 1309.292 1206 C 1304.245 1195.500, 1300.756 1190.571, 1292.593 1182.407 C 1284.617 1174.432, 1279.303 1170.588, 1269.933 1166.017 C 1266.395 1164.292, 1262.719 1162.457, 1261.764 1161.940 C 1260.809 1161.423, 1259.340 1161, 1258.500 1161 C 1257.660 1161, 1256.191 1160.594, 1255.236 1160.097 C 1246.403 1155.506, 1215.247 1153.489, 1199 1156.457 M 725.495 1158.647 C 724.186 1159.957, 724 1174.176, 724 1273.036 L 724 1385.930 726.126 1387.067 C 729.392 1388.815, 841.457 1387.458, 852.359 1385.539 C 873.335 1381.846, 887.927 1374.078, 897.513 1361.500 C 900.733 1357.276, 904 1351.210, 904 1349.456 C 904 1348.640, 904.420 1347.191, 904.934 1346.236 C 907.961 1340.607, 909.148 1317.887, 906.922 1308.193 C 905.200 1300.693, 899.945 1290.874, 895 1285.916 C 887.970 1278.869, 870.530 1271.036, 861.809 1271.011 C 854.361 1270.989, 856.835 1268.626, 866.500 1266.529 C 872.912 1265.137, 884.211 1258.620, 889.818 1253.078 C 894.915 1248.040, 896.723 1245.059, 901.088 1234.500 C 901.543 1233.400, 902.435 1228.146, 903.072 1222.825 C 905.985 1198.453, 898.431 1180.731, 880.594 1170.092 C 862.839 1159.501, 842.321 1157.042, 772.245 1157.109 C 733.455 1157.146, 726.777 1157.366, 725.495 1158.647 M 929.250 1157.723 C 927.462 1157.945, 925.996 1158.661, 925.992 1159.313 C 925.987 1159.966, 925.991 1211.326, 926 1273.446 C 926.013 1362.291, 926.282 1386.561, 927.258 1387.181 C 928.925 1388.239, 1017.715 1388.068, 1036 1386.971 C 1067.075 1385.106, 1081.292 1379.915, 1094.875 1365.474 C 1100.383 1359.619, 1106 1350.053, 1106 1346.529 C 1106 1345.753, 1106.402 1344.869, 1106.894 1344.565 C 1109.238 1343.117, 1110.640 1319.782, 1108.940 1310.500 C 1107.025 1300.043, 1103.620 1293.435, 1096.456 1286.270 C 1089.228 1279.042, 1076.831 1272.519, 1067.410 1270.985 C 1064.285 1270.477, 1061.518 1269.852, 1061.263 1269.597 C 1060.227 1268.561, 1062.156 1267.236, 1065.489 1266.696 C 1067.434 1266.380, 1072.861 1264.307, 1077.549 1262.090 C 1096.727 1253.019, 1104.927 1238.341, 1104.974 1213 C 1105.023 1186.957, 1094.654 1172.847, 1069 1164.045 C 1052.626 1158.426, 1034.311 1157.040, 978.500 1157.194 C 953.200 1157.263, 931.038 1157.502, 929.250 1157.723 M 1212.500 1179.059 C 1208.298 1181.118, 1204 1186.613, 1204 1189.927 C 1204 1191.002, 1203.608 1192.124, 1203.129 1192.420 C 1202.270 1192.951, 1201.880 1195.321, 1199.911 1212 C 1198.296 1225.678, 1197.573 1315.471, 1198.969 1329 C 1200.959 1348.283, 1202.911 1356.307, 1207.142 1362.608 C 1210.644 1367.823, 1214.669 1369.500, 1223.685 1369.500 C 1230.302 1369.500, 1231.118 1369.263, 1234.015 1366.500 C 1239.962 1360.828, 1243.011 1350.783, 1245.094 1330 C 1246.687 1314.108, 1246.652 1228.436, 1245.047 1214.348 C 1242.811 1194.716, 1239.950 1184.825, 1235.372 1180.892 C 1230.480 1176.688, 1219.186 1175.784, 1212.500 1179.059 M 795.416 1179.917 C 795.187 1180.146, 795 1198.483, 795 1220.667 L 795 1261 807.070 1261 C 818.834 1261, 819.250 1260.924, 823.483 1258.012 C 830.814 1252.968, 831.500 1249.842, 831.500 1221.500 C 831.500 1194.663, 830.843 1190.643, 825.600 1185.400 C 823.829 1183.629, 820.606 1181.720, 818.440 1181.160 C 814.464 1180.131, 796.187 1179.144, 795.416 1179.917 M 996.667 1180.667 C 996.300 1181.033, 996 1199.258, 996 1221.167 L 996 1261 1008.550 1261 C 1022.553 1261, 1025.256 1260.187, 1029.337 1254.751 C 1033.044 1249.814, 1034.001 1242.801, 1033.984 1220.701 C 1033.965 1196.250, 1032.867 1190.100, 1027.671 1185.337 C 1025.756 1183.582, 1022.459 1181.666, 1020.344 1181.079 C 1016.145 1179.913, 997.741 1179.592, 996.667 1180.667 M 996.714 1282.619 C 996.321 1283.012, 996 1301.653, 996 1324.044 C 996 1359.130, 996.209 1364.928, 997.510 1366.008 C 998.594 1366.908, 1001.911 1367.125, 1009.260 1366.779 C 1023.527 1366.108, 1028.237 1363.856, 1032.845 1355.500 C 1034.278 1352.902, 1034.500 1348.601, 1034.500 1323.422 L 1034.500 1294.344 1031.692 1290.663 C 1027.247 1284.835, 1023.203 1283.366, 1009.464 1282.587 C 1002.845 1282.212, 997.107 1282.226, 996.714 1282.619 M 795 1324.383 L 795 1365.767 797.250 1366.370 C 801.609 1367.538, 814.663 1366.993, 819.072 1365.459 C 824.804 1363.465, 827.238 1361.369, 830.137 1355.931 C 832.458 1351.579, 832.500 1351.012, 832.477 1324 C 832.450 1292.479, 832.387 1292.212, 823.577 1286.250 C 818.826 1283.035, 818.646 1283, 806.887 1283 L 795 1283 795 1324.383" stroke="none" fill="black" fill-rule="evenodd"/>
</svg>